<svg width="400" height="50" viewBox="0 0 400 50" fill="none" xmlns="http://www.w3.org/2000/svg">
<g clip-path="url(#clip0_1008_3)">
<path d="M2.99141e-06 4.63001C-0.0272056 4.00183 0.0790168 3.37502 0.31167 2.79087C0.544324 2.20673 0.898126 1.67853 1.34976 1.24106C1.8014 0.803602 2.34061 0.466815 2.93187 0.252898C3.52313 0.0389807 4.15301 -0.0472094 4.78 7.21496e-06H28.19C28.5509 -0.0133537 28.9108 0.0455418 29.2485 0.173233C29.5863 0.300925 29.8952 0.494838 30.157 0.743578C30.4187 0.992318 30.6282 1.29087 30.773 1.62169C30.9177 1.95251 30.9949 2.30893 31 2.67001C30.9716 3.40665 30.6588 4.10361 30.1273 4.61452C29.5959 5.12544 28.8872 5.41056 28.15 5.41001H5.6V22.13H23.74C24.101 22.1234 24.4598 22.1884 24.7955 22.3214C25.1312 22.4544 25.4372 22.6526 25.6957 22.9047C25.9543 23.1567 26.1602 23.4576 26.3017 23.7898C26.4432 24.122 26.5174 24.4789 26.52 24.84C26.4916 25.5581 26.1862 26.2372 25.6679 26.735C25.1496 27.2328 24.4586 27.5106 23.74 27.51H5.6V46.33C5.6134 47.0816 5.32831 47.8078 4.80721 48.3495C4.28611 48.8912 3.57151 49.2042 2.82 49.22C2.06901 49.1919 1.35754 48.8762 0.832693 48.3383C0.307841 47.8005 0.00973523 47.0815 2.99141e-06 46.33V4.63001Z" fill="white"/>
<path d="M62 25C62.17 28.2278 62.17 31.4622 62 34.69C61.5 42.69 55.22 48.45 46.78 48.45C38.34 48.45 32 42.66 31.51 34.67C31.36 31.93 31.36 27.76 31.51 24.98C31.97 16.98 38.31 11.48 46.73 11.48C55.15 11.48 61.45 17 62 25ZM37 25.37C36.86 27.76 36.86 32 37 34.37C37.46 39.68 41.17 43.37 46.7 43.37C52.23 43.37 55.89 39.73 56.39 34.37C56.5 32.05 56.5 27.81 56.39 25.42C56.03 20.42 52.39 16.69 46.7 16.69C41.01 16.69 37.39 20.35 37 25.37Z" fill="white"/>
<path d="M87.78 14.82C87.7756 15.1729 87.6988 15.5212 87.5544 15.8433C87.41 16.1654 87.201 16.4544 86.9405 16.6925C86.6799 16.9306 86.3732 17.1127 86.0394 17.2275C85.7057 17.3423 85.3519 17.3874 85 17.36C83.64 17.36 82 16.79 79.62 16.79C75.8 16.86 74.09 18.79 74.09 22.91V45.3C74.1128 45.6811 74.0574 46.0629 73.9273 46.4218C73.7971 46.7807 73.5949 47.1092 73.3332 47.3871C73.0714 47.665 72.7555 47.8865 72.405 48.0378C72.0545 48.1892 71.6768 48.2673 71.295 48.2673C70.9132 48.2673 70.5355 48.1892 70.1849 48.0378C69.8344 47.8865 69.5186 47.665 69.2568 47.3871C68.995 47.1092 68.7929 46.7807 68.6627 46.4218C68.5326 46.0629 68.4772 45.6811 68.5 45.3V22.3C68.5 15.64 72.45 11.47 79.62 11.47C81.6151 11.4361 83.6049 11.6853 85.53 12.21C86.1692 12.271 86.7601 12.5766 87.1794 13.0629C87.5987 13.5493 87.8138 14.1788 87.78 14.82V14.82Z" fill="white"/>
<path d="M110.38 14.82C110.375 15.1667 110.3 15.5088 110.16 15.8259C110.02 16.143 109.818 16.4286 109.565 16.6657C109.312 16.9028 109.014 17.0865 108.688 17.2058C108.362 17.3251 108.016 17.3775 107.67 17.36C106.28 17.36 104.67 16.79 102.26 16.79C98.44 16.86 96.73 18.79 96.73 22.91V45.3C96.7353 45.6638 96.6689 46.025 96.5345 46.3631C96.4002 46.7012 96.2006 47.0096 95.9471 47.2705C95.6935 47.5314 95.3911 47.7399 95.057 47.8839C94.723 48.028 94.3638 48.1048 94 48.11C93.2562 48.1023 92.5449 47.804 92.0181 47.279C91.4912 46.754 91.1904 46.0438 91.18 45.3V22.3C91.18 15.64 95.18 11.47 102.31 11.47C104.318 11.4373 106.321 11.6864 108.26 12.21C108.878 12.297 109.439 12.6144 109.833 13.0986C110.226 13.5827 110.421 14.1977 110.38 14.82Z" fill="white"/>
<path d="M142.1 28.33C142.1 30.72 140.85 32.33 138.1 32.33H117.69V33.4C117.69 39.81 121.82 43.4 127.84 43.4C130.691 43.2778 133.501 42.6726 136.15 41.61C138.61 40.61 140.15 42.22 140.15 43.79C140.152 44.2987 140.013 44.7979 139.748 45.2322C139.483 45.6665 139.103 46.0188 138.65 46.25C136.47 47.57 131.65 48.42 127.81 48.42C118.4 48.42 112.81 42.51 112.31 33.78C112.156 31.048 112.179 28.3089 112.38 25.58C113.13 16.78 119.15 11.47 127.46 11.47C136.46 11.47 142.14 17.59 142.14 26.26L142.1 28.33ZM135.83 27.65C135.943 27.6597 136.056 27.6459 136.163 27.6097C136.27 27.5735 136.368 27.5155 136.452 27.4394C136.536 27.3634 136.602 27.2709 136.649 27.1677C136.695 27.0646 136.719 26.953 136.72 26.84C137.11 20.6 133.37 16.46 127.49 16.46C120.83 16.46 117.49 20.81 117.69 27.65H135.83Z" fill="white"/>
<path d="M172.57 37.53C172.57 44.23 167.27 48.43 159.35 48.43C154.22 48.43 150.27 47.15 147.2 44.62C146.68 44.1783 146.338 43.5622 146.238 42.8868C146.139 42.2114 146.289 41.523 146.66 40.95C146.87 40.6572 147.138 40.4101 147.446 40.2235C147.755 40.0369 148.098 39.9146 148.455 39.8642C148.812 39.8137 149.175 39.8361 149.523 39.9299C149.871 40.0237 150.197 40.187 150.48 40.41C153.099 42.5674 156.432 43.6631 159.82 43.48C164.45 43.48 167.12 41.02 167.12 37.81C167.12 35.42 165.56 33.81 161.67 32.89C159.35 32.36 159.35 32.43 156.75 31.72C150.41 30.08 147.13 27.16 147.13 22.06C147.13 15.57 152.4 11.48 159.89 11.48C163.365 11.4327 166.772 12.4518 169.65 14.4C169.926 14.6257 170.154 14.9047 170.32 15.2203C170.487 15.5359 170.588 15.8817 170.618 16.2372C170.647 16.5926 170.605 16.9505 170.494 17.2894C170.383 17.6283 170.205 17.9414 169.97 18.21C169.5 18.6951 168.873 18.9976 168.201 19.0636C167.529 19.1295 166.855 18.9546 166.3 18.57C164.32 17.2972 162.023 16.6044 159.67 16.57C154.9 16.57 152.51 18.57 152.51 21.88C152.51 24.06 153.76 25.49 157.85 26.59C160.03 27.2 162.42 27.69 163.52 27.95C169.44 29.4 172.57 32.54 172.57 37.53Z" fill="white"/>
<path d="M189.36 48.43C182.06 48.43 178.85 43.59 178.85 37.21V7.52001C178.85 6.78801 179.141 6.086 179.658 5.56839C180.176 5.05079 180.878 4.76001 181.61 4.76001C182.342 4.76001 183.044 5.05079 183.562 5.56839C184.079 6.086 184.37 6.78801 184.37 7.52001V13.11H194.67C195.025 13.065 195.385 13.0961 195.727 13.2012C196.069 13.3063 196.385 13.4829 196.653 13.7194C196.921 13.9559 197.136 14.2468 197.283 14.5728C197.431 14.8987 197.507 15.2523 197.507 15.61C197.507 15.9677 197.431 16.3213 197.283 16.6473C197.136 16.9732 196.921 17.2641 196.653 17.5006C196.385 17.7371 196.069 17.9138 195.727 18.0188C195.385 18.1239 195.025 18.155 194.67 18.11H184.37V37.39C184.37 40.81 185.94 43.39 189.64 43.39C191.512 43.2494 193.353 42.828 195.1 42.14C197.35 41.6 198.63 42.96 198.63 44.67C198.63 45.92 197.95 46.81 196.38 47.34C194.119 48.0994 191.745 48.468 189.36 48.43V48.43Z" fill="white"/>
<path d="M227.57 47.83H211.67C211.044 47.8727 210.415 47.7829 209.826 47.5666C209.237 47.3502 208.7 47.0122 208.25 46.5745C207.8 46.1367 207.447 45.6091 207.214 45.026C206.982 44.4429 206.875 43.8173 206.9 43.19V4.63001C206.873 4.00274 206.979 3.37684 207.211 2.79344C207.443 2.21004 207.796 1.68236 208.246 1.24505C208.697 0.807753 209.235 0.470738 209.825 0.256155C210.415 0.0415713 211.044 -0.045722 211.67 1.08005e-05H226.82C235.82 1.08005e-05 240.47 5.74001 240.47 12.29C240.47 18.64 237.62 21.7 234.06 22.91V23.06C238.9 24.23 241.83 28.4 241.83 34.18C241.83 44.08 235.37 47.83 227.57 47.83ZM226.5 20.49C232.27 20.49 234.87 17.67 234.87 12.97C234.87 7.97001 232.02 5.41001 226.5 5.41001H212.5V20.49H226.5ZM212.5 42.49H226.83C233.17 42.49 236.13 39.56 236.13 34.07C236.13 28.83 232.64 25.84 227.51 25.84H212.51L212.5 42.49Z" fill="white"/>
<path d="M267.2 14.82C267.194 15.1689 267.117 15.513 266.975 15.8315C266.832 16.1501 266.627 16.4366 266.371 16.6738C266.115 16.911 265.814 17.0941 265.486 17.212C265.157 17.3299 264.808 17.3803 264.46 17.36C263.1 17.36 261.46 16.79 259.08 16.79C255.26 16.86 253.55 18.79 253.55 22.91V45.3C253.55 46.0426 253.255 46.7548 252.73 47.2799C252.205 47.805 251.493 48.1 250.75 48.1C250.007 48.1 249.295 47.805 248.77 47.2799C248.245 46.7548 247.95 46.0426 247.95 45.3V22.3C247.95 15.64 251.95 11.47 259.08 11.47C261.088 11.4394 263.091 11.6884 265.03 12.21C265.657 12.2854 266.231 12.5979 266.634 13.0832C267.038 13.5686 267.24 14.1901 267.2 14.82Z" fill="white"/>
<path d="M299.64 25C299.85 28.2266 299.85 31.4634 299.64 34.69C299.14 42.69 292.86 48.45 284.42 48.45C275.98 48.45 269.66 42.68 269.2 34.69C269.06 31.95 269.06 27.78 269.2 25C269.66 17 276.01 11.5 284.42 11.5C292.83 11.5 299.14 17 299.64 25ZM274.72 25.39C274.58 27.78 274.58 32.02 274.72 34.39C275.18 39.7 278.89 43.39 284.42 43.39C289.95 43.39 293.61 39.75 294.11 34.39C294.25 32.07 294.25 27.83 294.11 25.44C293.75 20.44 290.16 16.71 284.42 16.71C278.68 16.71 275.08 20.35 274.72 25.37V25.39Z" fill="white"/>
<path d="M329.82 18.28C329.804 18.2077 329.763 18.1433 329.705 18.0977C329.646 18.0522 329.574 18.0282 329.5 18.03C329.36 18.03 329.15 18.1 329.15 18.28L322.2 44.37C321.45 47.29 319.6 48.64 317.28 48.64C316.064 48.6489 314.885 48.23 313.947 47.4567C313.009 46.6834 312.373 45.6049 312.15 44.41L304.24 15.75C303.7 13.75 304.88 11.75 306.76 11.75C307.349 11.7404 307.923 11.934 308.386 12.2983C308.848 12.6627 309.171 13.1754 309.3 13.75L317 42.59C317.15 43.05 317.57 43.05 317.72 42.59L324.6 15.82C324.822 14.6744 325.438 13.6427 326.341 12.9035C327.244 12.1643 328.377 11.7642 329.544 11.7725C330.711 11.7808 331.838 12.197 332.731 12.949C333.623 13.701 334.224 14.7414 334.43 15.89L341.31 42.59C341.45 43.05 341.84 43.05 341.99 42.59L349.43 14C349.53 13.3635 349.86 12.7858 350.358 12.3766C350.856 11.9673 351.486 11.7551 352.13 11.78C354.13 11.78 355.2 13.78 354.67 15.78L346.67 44.44C345.85 47.32 343.96 48.67 341.61 48.67C340.407 48.6843 339.239 48.2645 338.321 47.4876C337.403 46.7106 336.795 45.6286 336.61 44.44L329.82 18.28Z" fill="white"/>
<path d="M390.41 45.22C390.438 45.5914 390.388 45.9645 390.264 46.3157C390.14 46.6669 389.944 46.9885 389.69 47.2602C389.435 47.5319 389.127 47.7477 388.784 47.894C388.442 48.0402 388.072 48.1138 387.7 48.11C386.945 48.0969 386.226 47.7856 385.699 47.2442C385.173 46.7028 384.882 45.9751 384.89 45.22V25.66C384.89 19.38 380.69 16.71 375.76 16.71C372.493 16.7054 369.271 17.4766 366.36 18.96V45.22C366.378 45.5924 366.32 45.9645 366.189 46.3138C366.059 46.6632 365.86 46.9825 365.603 47.2526C365.346 47.5227 365.037 47.7379 364.694 47.8853C364.352 48.0326 363.983 48.1091 363.61 48.11C362.859 48.0943 362.144 47.7812 361.623 47.2395C361.102 46.6978 360.817 45.9716 360.83 45.22V17.6C360.791 17.1193 360.884 16.6371 361.099 16.2053C361.314 15.7736 361.643 15.4087 362.05 15.15C363.97 13.72 368.85 11.48 375.91 11.48C385.46 11.48 390.41 16.48 390.41 25.37V45.22Z" fill="white"/>
<path d="M396.08 5.67001C396.352 5.5558 396.581 5.35933 396.735 5.10822C396.889 4.8571 396.961 4.56397 396.94 4.27001C396.946 4.03689 396.904 3.80505 396.815 3.58943C396.726 3.37381 396.593 3.17919 396.424 3.0181C396.256 2.85702 396.055 2.73303 395.836 2.65413C395.616 2.57523 395.383 2.54317 395.15 2.56001H393.69C393.593 2.5545 393.495 2.56912 393.404 2.60296C393.312 2.6368 393.229 2.68913 393.158 2.75669C393.088 2.82425 393.032 2.90558 392.995 2.99562C392.957 3.08566 392.938 3.18247 392.94 3.28001V7.00001C392.944 7.16325 393.009 7.31903 393.122 7.43725C393.235 7.55546 393.387 7.6277 393.55 7.64001C393.715 7.63478 393.872 7.56473 393.986 7.44498C394.1 7.32524 394.163 7.16541 394.16 7.00001V6.00001H394.62C394.699 5.99842 394.777 6.01799 394.845 6.05669C394.914 6.09539 394.971 6.15179 395.01 6.22001L396.01 7.50001C396.057 7.55766 396.117 7.60383 396.184 7.63502C396.252 7.66621 396.326 7.68159 396.4 7.68001C396.487 7.67929 396.573 7.66022 396.652 7.62404C396.732 7.58785 396.802 7.53537 396.86 7.47001C396.966 7.36 397.026 7.21299 397.026 7.06001C397.026 6.90702 396.966 6.76002 396.86 6.65001L396.08 5.67001ZM395.08 4.88001H394.19V3.67001H395.11C395.58 3.67001 395.75 3.92001 395.75 4.27001C395.75 4.62001 395.58 4.88001 395.05 4.88001H395.08Z" fill="white"/>
<path d="M394.91 9.8084e-06C393.901 -0.00196884 392.914 0.295458 392.074 0.854649C391.234 1.41384 390.579 2.20966 390.191 3.14139C389.804 4.07311 389.701 5.09887 389.897 6.08883C390.092 7.07879 390.577 7.98845 391.29 8.7027C392.003 9.41695 392.912 9.90367 393.901 10.1013C394.891 10.2989 395.917 10.1985 396.849 9.81274C397.782 9.42703 398.579 8.77336 399.14 7.93445C399.701 7.09555 400 6.10912 400 5.10001C400 3.74914 399.464 2.45344 398.51 1.4973C397.556 0.541148 396.261 0.00265858 394.91 9.8084e-06V9.8084e-06ZM394.91 9.09001C394.117 9.09993 393.339 8.87378 392.674 8.44033C392.01 8.00688 391.489 7.38568 391.179 6.65571C390.869 5.92573 390.782 5.11994 390.931 4.34075C391.08 3.56156 391.457 2.84416 392.014 2.27974C392.571 1.71532 393.284 1.32936 394.061 1.17092C394.838 1.01248 395.645 1.08872 396.379 1.38995C397.113 1.69118 397.74 2.20378 398.182 2.86262C398.624 3.52146 398.86 4.29677 398.86 5.09001C398.86 6.14227 398.446 7.15218 397.706 7.90091C396.967 8.64963 395.962 9.07686 394.91 9.09001V9.09001Z" fill="white"/>
</g>
<defs>
<clipPath id="clip0_1008_3">
<rect width="400" height="49.22" fill="white"/>
</clipPath>
</defs>
</svg>
