<svg xmlns="http://www.w3.org/2000/svg" width="16.576" height="16.322" viewBox="0 0 16.576 16.322"><path data-name="Path 18877" d="M6.579 0H5.331l2.823 7.377c-1.8.117-3.6.283-5.042.432L1.02 5.381H.001l.882 2.674c-.552.064-.882.107-.882.107s.331.041.882.106L.001 10.94H1.02l2.092-2.427c1.445.15 3.239.315 5.042.433l-2.823 7.376h1.248l1.287-1.663a4.678 4.678 0 00.524.031 4 4 0 001.122-.145v-.826a3.843 3.843 0 00-.82-.126l1.084-1.4c.151.015.308.025.476.025a4 4 0 001.123-.145v-.827a3.833 3.833 0 00-.773-.121l1.565-2.021h.112c2.456 0 4.3-.235 4.3-.94s-1.842-.941-4.3-.941h-.112l-1.565-2.022a3.8 3.8 0 00.773-.121v-.827a4.006 4.006 0 00-1.123-.145 4.756 4.756 0 00-.476.025l-1.084-1.4a3.847 3.847 0 00.82-.125v-.827a4.024 4.024 0 00-1.122-.145 4.941 4.941 0 00-.524.03z" fill="#fff"/></svg>