<svg xmlns="http://www.w3.org/2000/svg" width="28.541" height="28.104" viewBox="0 0 28.541 28.104">
  <path id="Airplane" d="M156.877,151.131h-2.149l4.861,12.7c-3.1.2-6.194.487-8.682.744l-3.6-4.18h-1.755l1.519,4.6c-.95.111-1.519.185-1.519.185s.569.071,1.519.182l-1.519,4.6H147.3l3.6-4.179c2.488.257,5.577.542,8.682.745l-4.861,12.7h2.149l2.216-2.864a8.053,8.053,0,0,0,.9.054,6.893,6.893,0,0,0,1.932-.25v-1.423a6.616,6.616,0,0,0-1.412-.216l1.866-2.414c.259.025.531.044.82.044a6.9,6.9,0,0,0,1.933-.25v-1.424a6.6,6.6,0,0,0-1.331-.209l2.694-3.48h.192c4.228,0,7.4-.4,7.4-1.618s-3.172-1.62-7.4-1.62H166.5l-2.694-3.481a6.539,6.539,0,0,0,1.331-.208v-1.425a6.9,6.9,0,0,0-1.933-.249,8.172,8.172,0,0,0-.82.044l-1.866-2.415a6.618,6.618,0,0,0,1.412-.215v-1.424a6.928,6.928,0,0,0-1.932-.249,8.516,8.516,0,0,0-.9.052Z" transform="translate(-145.549 -151.131)" fill="#ffca50"/>
</svg>
