<svg xmlns="http://www.w3.org/2000/svg" width="69.998" height="68.926" viewBox="0 0 69.998 68.926"><path data-name="Path 198" d="M27.782 0h-5.27l11.922 31.151c-7.615.493-15.19 1.194-21.293 1.824L4.305 22.722H0l3.726 11.291c-2.33.272-3.726.454-3.726.454s1.4.173 3.726.447L0 46.2h4.305l8.836-10.251c6.1.631 13.678 1.328 21.293 1.828L22.512 68.926h5.27l5.434-7.026a19.746 19.746 0 002.214.132 16.906 16.906 0 004.739-.614v-3.49a16.228 16.228 0 00-3.463-.53l4.577-5.921c.636.061 1.3.107 2.01.107a16.911 16.911 0 004.741-.614v-3.489a16.191 16.191 0 00-3.264-.513l6.604-8.535h.471c10.37 0 18.15-.993 18.15-3.968s-7.779-3.974-18.15-3.974h-.471l-6.6-8.534a16.046 16.046 0 003.264-.511v-3.493a16.917 16.917 0 00-4.741-.612 20.058 20.058 0 00-2.01.107l-4.577-5.923A16.238 16.238 0 0040.169 11V7.505a16.993 16.993 0 00-4.739-.612 20.871 20.871 0 00-2.214.127z" fill="#ff2a7a"/></svg>