<svg data-name="Podge Airways logo" xmlns="http://www.w3.org/2000/svg" width="454.971" height="39.736" viewBox="0 0 454.971 39.736"><defs><clipPath id="a"><path data-name="Path 36" d="M0 22.018h454.971v-39.736H0z" transform="translate(0 17.718)" fill="none"/></clipPath></defs><g data-name="Group 211"><g data-name="Group 210" clip-path="url(#a)"><path data-name="Path 35" d="M17.937 39.138l1.976-9.455h7.659q7.6 0 11.938-3.889a18.544 18.544 0 005.656-10.593 16.225 16.225 0 00.359-3.292 12.332 12.332 0 00-1.346-5.8 9.6 9.6 0 00-4.071-4.043A14.337 14.337 0 0033.257.599H13.208L5.071 39.138zm6.045-28.546h4.907a3.543 3.543 0 012.572.778 2.914 2.914 0 01.778 2.153 8.473 8.473 0 01-.179 1.678 6.506 6.506 0 01-1.586 3.261 4.964 4.964 0 01-3.741 1.227h-4.667zm49.16 27.169a17.679 17.679 0 007.959-6.342 30.777 30.777 0 004.578-11.49 26.4 26.4 0 00.509-3.084 27.729 27.729 0 00.15-2.781q0-7.243-4.459-10.653T69.762 0a31.5 31.5 0 00-11.819 1.976 17.694 17.694 0 00-7.959 6.342 31.518 31.518 0 00-4.638 11.611 26.39 26.39 0 00-.659 5.865 13.967 13.967 0 002.066 7.928 12.068 12.068 0 005.8 4.548 23.765 23.765 0 008.708 1.467 31.687 31.687 0 0011.881-1.976M59.259 27.706a4.6 4.6 0 01-1.351-3.709 19.036 19.036 0 01.538-4.068q1.019-4.969 3.113-6.973a8.134 8.134 0 015.865-2 6.827 6.827 0 014.308 1.077 4.561 4.561 0 011.316 3.712 20.722 20.722 0 01-.538 4.189q-1.015 4.717-3.109 6.817a7.846 7.846 0 01-5.8 2.092 6.667 6.667 0 01-4.337-1.137m44.368 11.432q9.517 0 15.17-4.488t7.571-14.542a27.832 27.832 0 00.535-5.207q0-7.179-4.308-10.74T111.169.6H93.398l-8.139 38.538zm.476-28.306h3.351a9.153 9.153 0 014.757.987q1.592.989 1.592 3.979a22.439 22.439 0 01-.538 4.31 18.1 18.1 0 01-2 5.8 6.306 6.306 0 01-3.111 2.694 13.129 13.129 0 01-4.638.718h-3.361zm51.585 27.857a26.025 26.025 0 006.643-2.6l4.19-19.632h-17.713l-1.675 7.841h7l-.839 3.949a16.557 16.557 0 01-4.667.6q-3.832 0-5.506-1.077t-1.675-3.831a14.788 14.788 0 01.119-1.794c.081-.637.2-1.337.359-2.095q1.019-4.965 4.16-7.062a14.6 14.6 0 018.229-2.095 39.426 39.426 0 015.954.419 20.208 20.208 0 014.936 1.375l2.335-10.951A35.158 35.158 0 00155.753 0q-11.371 0-18.1 5.147t-8.827 14.904a25.471 25.471 0 00-.538 4.968q0 7.239 4.876 10.98t13.2 3.741a37.2 37.2 0 009.336-1.047m39.615.449l1.976-9.516h-17.12l1.077-4.847h14.9l2.034-9.754h-14.9l1.077-4.907h17.114l1.976-9.516H173.47l-8.139 38.539zm24.116 0l5.506-9.276h14.183l1.734 9.276h8.08L242.408.599h-8.857l-22.86 38.539zm17.235-31l2.633 15.5h-11.791zm26.031 31L270.836.603h-8.078l-8.139 38.539zm14.961 0l2.691-12.748h6.345a3.489 3.489 0 012.274.54 3.52 3.52 0 01.9 1.855l2.393 10.352h8.379l-2.393-10.772a12.3 12.3 0 00-.689-2.393 5.431 5.431 0 00-1.166-1.675 13.42 13.42 0 006.612-4.01 14.208 14.208 0 003.321-6.764q1.315-5.924-1.346-9.424t-8.767-3.5h-18.499l-8.139 38.539zm6.762-31.838h8.8q3.65 0 4.638 1.5t.269 4.725a7.048 7.048 0 01-2.759 4.754 9.248 9.248 0 01-5.266 1.406h-8.318zm36.085 31.838l12.803-24.661 1.855 24.656h7.421L359.64.598h-7.9l-11.491 26.093L338.336.599h-6.585l-1.016 5.026-10.771 21.005-.3-26.031h-7.956l.839 38.539zm38.42 0l5.506-9.276h14.177l1.736 9.276h8.078L381.898.603h-8.856l-22.86 38.539zm17.235-31l2.633 15.5h-11.79zm29.981 31l2.994-14.243 18.969-24.3h-8.617l-13.109 17.414-5.8-17.415h-8.2l8.677 24.3-2.992 14.243zm37.193-.778a11.96 11.96 0 005.566-3.889 14.834 14.834 0 002.6-5.865 11.055 11.055 0 00.058-4.968 7.26 7.26 0 00-2.723-3.949 19.2 19.2 0 00-6.672-2.992 49.209 49.209 0 01-4.936-1.617 4.843 4.843 0 01-2.335-1.615 3.211 3.211 0 01-.269-2.4 4.231 4.231 0 012.873-3.38 19.067 19.067 0 016.1-.807 25.174 25.174 0 019.814 1.855l1.557-7.121A23.26 23.26 0 00450.39.479a39.1 39.1 0 00-6.374-.48q-8.138 0-12.3 2.873a12.782 12.782 0 00-5.3 8.2q-.959 4.43.989 6.943t7.63 4.189a49.113 49.113 0 015.416 1.823 5.342 5.342 0 012.521 1.824 3.722 3.722 0 01.269 2.754 4.4 4.4 0 01-2.723 3.53 19.425 19.425 0 01-6.313.778 26.644 26.644 0 01-5.865-.659 27.734 27.734 0 01-5.326-1.734l-1.5 7.121a19.606 19.606 0 005.176 1.556 39.6 39.6 0 006.793.538 28.785 28.785 0 009.843-1.377" fill="#3a1eea"/></g></g><g data-name="Group 212"><path data-name="Path 37" d="M0 .615l18.511 18.511V.615z" fill="#3a1eea"/></g></svg>