<svg data-name="Group 1789" xmlns="http://www.w3.org/2000/svg" width="235.198" height="20.556" viewBox="0 0 235.198 20.556"><defs><clipPath id="a"><path data-name="Rectangle 3737" fill="none" d="M0 0h235.198v20.556H0z"/></clipPath></defs><g data-name="Group 1786" clip-path="url(#a)" fill="#fff"><path data-name="Path 9926" d="M9.272 20.239l1.022-4.888h3.956a8.912 8.912 0 006.171-2.01 9.585 9.585 0 002.929-5.477 8.369 8.369 0 00.186-1.7 6.372 6.372 0 00-.7-3 4.964 4.964 0 00-2.1-2.09 7.412 7.412 0 00-3.544-.758H6.827L2.621 20.239zm3.125-14.757h2.537a1.833 1.833 0 011.33.4A1.507 1.507 0 0116.666 7a4.406 4.406 0 01-.093.867 3.365 3.365 0 01-.823 1.683 2.567 2.567 0 01-1.934.634h-2.409zm25.414 14.045a9.14 9.14 0 004.114-3.279 15.913 15.913 0 002.367-5.94 13.742 13.742 0 00.263-1.594 14.21 14.21 0 00.078-1.438q0-3.745-2.305-5.507A10.076 10.076 0 0036.063.006a16.279 16.279 0 00-6.113 1.021 9.147 9.147 0 00-4.114 3.279 16.293 16.293 0 00-2.4 6 13.658 13.658 0 00-.341 3.032 7.22 7.22 0 001.068 4.1 6.239 6.239 0 003 2.351 12.287 12.287 0 004.5.758 16.384 16.384 0 006.142-1.022m-7.177-5.2a2.377 2.377 0 01-.7-1.917 9.849 9.849 0 01.278-2.1 6.875 6.875 0 011.609-3.6A4.207 4.207 0 0134.85 5.67a3.53 3.53 0 012.227.557 2.357 2.357 0 01.68 1.919 10.687 10.687 0 01-.278 2.166 7.04 7.04 0 01-1.607 3.524 4.056 4.056 0 01-3 1.081 3.447 3.447 0 01-2.242-.588m22.936 5.91a12.262 12.262 0 007.842-2.32q2.923-2.32 3.914-7.518a14.349 14.349 0 00.277-2.692 6.787 6.787 0 00-2.227-5.552A8.98 8.98 0 0057.469.316h-9.187l-4.207 19.923zm.246-14.633h1.738a4.727 4.727 0 012.459.51 2.24 2.24 0 01.823 2.057 11.63 11.63 0 01-.278 2.228 9.356 9.356 0 01-1.034 3 3.261 3.261 0 01-1.608 1.393 6.787 6.787 0 01-2.4.371h-1.734zm26.667 14.4a13.467 13.467 0 003.434-1.344l2.173-10.148h-9.157l-.866 4.053h3.619l-.432 2.041a8.566 8.566 0 01-2.413.31 5.47 5.47 0 01-2.846-.557 2.173 2.173 0 01-.866-1.98 7.62 7.62 0 01.062-.927c.042-.329.1-.691.186-1.083a5.464 5.464 0 012.148-3.651 7.55 7.55 0 014.254-1.083 20.375 20.375 0 013.078.217 10.442 10.442 0 012.552.711L86.612.9a18.187 18.187 0 00-6.095-.9q-5.879 0-9.357 2.661a12.629 12.629 0 00-4.563 7.7 13.151 13.151 0 00-.278 2.568 6.714 6.714 0 002.521 5.676 10.941 10.941 0 006.824 1.934 19.231 19.231 0 004.826-.541m20.479.232l1.022-4.919H93.14l.557-2.506h7.7l1.053-5.032h-7.7l.557-2.537h8.843l1.024-4.919h-15.5L85.469 20.24zm12.467 0l2.846-4.8h7.332l.9 4.8h4.177L125.314.316h-4.579l-11.817 19.923zm8.914-16.015l1.361 8.013h-6.1zm13.457 16.026L140.01.318h-4.176l-4.208 19.923zm7.734 0l1.391-6.59h3.28a1.8 1.8 0 011.176.279 1.822 1.822 0 01.465.959l1.237 5.352h4.332l-1.237-5.569a6.353 6.353 0 00-.356-1.237 2.808 2.808 0 00-.6-.866 6.939 6.939 0 003.411-2.069 7.345 7.345 0 001.716-3.5 5.7 5.7 0 00-.7-4.872q-1.371-1.81-4.528-1.81h-9.563l-4.208 19.923zm3.5-16.459h4.549q1.887 0 2.4.775A3.241 3.241 0 01154.118 7a3.643 3.643 0 01-1.426 2.458 4.78 4.78 0 01-2.722.727h-4.3zm18.654 16.459l6.619-12.749.959 12.746h3.836L185.918.315h-4.084l-5.94 13.485-.989-13.484h-3.4l-.525 2.6-5.568 10.859L165.25.316h-4.113l.434 19.923zm19.861 0l2.846-4.8h7.329l.9 4.8h4.176L197.424.318h-4.574l-11.821 19.923zm8.91-16.026l1.361 8.013h-6.095zm15.5 16.026l1.548-7.363L221.311.316h-4.455l-6.777 9-3-9h-4.239l4.486 12.562-1.547 7.363zm19.227-.4a6.182 6.182 0 002.877-2.01 7.667 7.667 0 001.344-3.032 5.715 5.715 0 00.03-2.568 3.753 3.753 0 00-1.408-2.041 9.925 9.925 0 00-3.449-1.547 25.409 25.409 0 01-2.552-.836 2.5 2.5 0 01-1.207-.835 1.659 1.659 0 01-.139-1.241 2.187 2.187 0 011.485-1.747 9.863 9.863 0 013.153-.417 13.015 13.015 0 015.073.959l.8-3.681a12.03 12.03 0 00-2.366-.588 20.21 20.21 0 00-3.3-.248q-4.207 0-6.359 1.485a6.608 6.608 0 00-2.74 4.239 4.2 4.2 0 00.511 3.589 7.7 7.7 0 003.944 2.166 25.405 25.405 0 012.8.942 2.759 2.759 0 011.3.943 1.924 1.924 0 01.139 1.424 2.275 2.275 0 01-1.408 1.825 10.052 10.052 0 01-3.264.4 13.789 13.789 0 01-3.032-.341 14.354 14.354 0 01-2.753-.9l-.775 3.681a10.132 10.132 0 002.676.8 20.494 20.494 0 003.512.278 14.886 14.886 0 005.088-.712"/><path data-name="Path 9927" d="M0 .324l9.569 9.569V.324z"/></g></svg>