<svg data-name="Podge airways logo" xmlns="http://www.w3.org/2000/svg" width="487.097" height="42.572" viewBox="0 0 487.097 42.572"><defs><clipPath id="a"><path data-name="Rectangle 3919" fill="none" d="M0 0h487.097v42.572H0z"/></clipPath></defs><g data-name="Group 2817"><g data-name="Group 2816"><g data-name="Group 1786" fill="#b4ffe7" clip-path="url(#a)"><path data-name="Path 9926" d="M19.202 41.915l2.116-10.123h8.194a18.452 18.452 0 0012.78-4.163 19.848 19.848 0 006.067-11.343 17.3 17.3 0 00.385-3.521 13.184 13.184 0 00-1.45-6.213 10.286 10.286 0 00-4.349-4.329 15.347 15.347 0 00-7.34-1.57H14.138l-8.71 41.261zm6.472-30.562h5.254a3.8 3.8 0 012.754.828 3.124 3.124 0 01.832 2.316 9.1 9.1 0 01-.193 1.8 6.966 6.966 0 01-1.7 3.485 5.318 5.318 0 01-4.005 1.313h-4.989zM78.307 40.44a18.936 18.936 0 008.52-6.791 32.956 32.956 0 004.9-12.3 28.337 28.337 0 00.545-3.3 29.394 29.394 0 00.162-2.978q0-7.755-4.774-11.405A20.868 20.868 0 0074.685.015a33.705 33.705 0 00-12.66 2.114 18.949 18.949 0 00-8.521 6.791 33.749 33.749 0 00-4.97 12.426 28.3 28.3 0 00-.706 6.279 14.957 14.957 0 002.211 8.491 12.923 12.923 0 006.213 4.869 25.45 25.45 0 009.32 1.57 33.93 33.93 0 0012.72-2.117M63.428 29.669a4.923 4.923 0 01-1.45-3.97 20.357 20.357 0 01.576-4.349 14.234 14.234 0 013.332-7.456 8.709 8.709 0 016.285-2.15 7.309 7.309 0 014.612 1.154 4.88 4.88 0 011.407 3.974 22.113 22.113 0 01-.575 4.486 14.585 14.585 0 01-3.329 7.3 8.4 8.4 0 01-6.213 2.238 7.134 7.134 0 01-4.643-1.217m47.5 12.239a25.4 25.4 0 0016.241-4.8q6.053-4.8 8.106-15.57a29.765 29.765 0 00.574-5.576 14.058 14.058 0 00-4.612-11.5A18.6 18.6 0 00119.013.659H99.992L91.28 41.92zm.509-30.305h3.6a9.791 9.791 0 015.093 1.057 4.638 4.638 0 011.7 4.26 24.093 24.093 0 01-.576 4.614 19.371 19.371 0 01-2.141 6.213 6.755 6.755 0 01-3.33 2.884 14.049 14.049 0 01-4.97.768h-3.591zm55.23 29.819a27.879 27.879 0 007.112-2.784l4.5-21.016H159.32l-1.793 8.394h7.5l-.895 4.227a17.757 17.757 0 01-5 .642 11.333 11.333 0 01-5.894-1.154 4.5 4.5 0 01-1.793-4.1 15.852 15.852 0 01.128-1.92c.087-.681.207-1.43.386-2.243a11.313 11.313 0 014.448-7.561 15.633 15.633 0 018.81-2.243 42.3 42.3 0 016.374.45 21.624 21.624 0 015.278 1.468l2.5-11.732a37.667 37.667 0 00-12.623-1.864q-12.175 0-19.378 5.512a26.148 26.148 0 00-9.45 15.946 27.179 27.179 0 00-.576 5.318 13.9 13.9 0 005.221 11.755 22.656 22.656 0 0014.132 4.006 39.846 39.846 0 009.995-1.121m42.413.481l2.116-10.187h-18.326l1.154-5.19h15.947l2.18-10.422h-15.947l1.154-5.254h18.314L217.816.653h-32.1l-8.708 41.261zm25.819 0l5.893-9.941H256l1.869 9.94h8.651L259.527.65h-9.483l-24.475 41.265zm18.461-33.168l2.819 16.6h-12.633zm27.869 33.191l8.7-41.261h-8.649l-8.715 41.261zm16.017 0l2.881-13.649h6.793a3.734 3.734 0 012.436.578 3.778 3.778 0 01.963 1.986l2.561 11.085h8.972l-2.562-11.534a13.188 13.188 0 00-.737-2.561 5.822 5.822 0 00-1.243-1.794 14.371 14.371 0 007.064-4.285 15.221 15.221 0 003.555-7.249 11.806 11.806 0 00-1.45-10.09Q323.663.655 317.125.655h-19.801l-8.715 41.261zm7.249-34.087h9.421q3.908 0 4.97 1.605a6.71 6.71 0 01.266 5.059 7.546 7.546 0 01-2.954 5.09 9.9 9.9 0 01-5.637 1.505h-8.905zm38.633 34.087l13.708-26.4 1.986 26.4h7.944L385.033.655h-8.454l-12.3 27.927L362.231.657h-7.042l-1.087 5.384-11.533 22.487-.336-27.874h-8.518l.9 41.261zm41.132 0l5.893-9.941h15.179l1.864 9.941h8.65l-7-41.257h-9.473L374.915 41.92zm18.452-33.191l2.819 16.6h-12.618zm32.1 33.191l3.206-15.249L458.33.651h-9.226l-14.03 18.641L428.861.653h-8.779l9.291 26.016-3.2 15.249zm39.819-.829a12.811 12.811 0 005.958-4.163 15.888 15.888 0 002.783-6.279 11.84 11.84 0 00.062-5.318 7.775 7.775 0 00-2.916-4.227 20.55 20.55 0 00-7.143-3.2 52.559 52.559 0 01-5.285-1.732 5.176 5.176 0 01-2.5-1.729 3.433 3.433 0 01-.288-2.57 4.529 4.529 0 013.076-3.618 20.411 20.411 0 016.53-.863 26.94 26.94 0 0110.506 1.986l1.657-7.624a24.882 24.882 0 00-4.9-1.217 41.752 41.752 0 00-6.834-.514q-8.713 0-13.17 3.075a13.688 13.688 0 00-5.675 8.779 8.7 8.7 0 001.059 7.434 15.946 15.946 0 008.168 4.485 52.519 52.519 0 015.8 1.951 5.715 5.715 0 012.693 1.952 3.986 3.986 0 01.287 2.949 4.712 4.712 0 01-2.916 3.78 20.832 20.832 0 01-6.76.828 28.519 28.519 0 01-6.28-.706 29.761 29.761 0 01-5.7-1.863l-1.605 7.623a21.009 21.009 0 005.542 1.657 42.444 42.444 0 007.273.576 30.845 30.845 0 0010.537-1.474"/><path data-name="Path 9927" d="M0 .67l19.818 19.818V.67z"/></g></g></g></svg>