<svg xmlns="http://www.w3.org/2000/svg" width="159.153" height="30" viewBox="0 0 159.153 30"><g fill="#ffca50"><path data-name="Path 597" d="M79.577-.001l-3.04 12.4-12.732-.943 10.854 6.723-4.829 11.82 9.747-8.249 9.746 8.249-4.834-11.82 10.859-6.723-12.731.943z"/><path data-name="Path 598" d="M117.679 5.897l-1.845 7.526-7.726-.573 6.586 4.08-2.93 7.173 5.915-5.006 5.915 5.006-2.934-7.173 6.59-4.08-7.726.573z"/><path data-name="Path 599" d="M149.582 5.897l-1.845 7.526-7.726-.573 6.586 4.08-2.93 7.173 5.915-5.006 5.915 5.006-2.934-7.173 6.59-4.08-7.726.573z"/><path data-name="Path 600" d="M41.473 5.897l-1.845 7.526-7.726-.573 6.586 4.08-2.93 7.173 5.915-5.006 5.915 5.006-2.934-7.173 6.59-4.08-7.726.573z"/><path data-name="Path 601" d="M9.57 5.897l-1.845 7.526-7.726-.573 6.586 4.08-2.93 7.173 5.915-5.006 5.915 5.006-2.934-7.173 6.59-4.08-7.726.573z"/></g></svg>