<svg xmlns="http://www.w3.org/2000/svg" width="16.576" height="12.389" viewBox="0 0 16.576 12.389"><path data-name="Path 9851" d="M.267 4.714A.837.837 0 01.22 3.535a10.968 10.968 0 0116.136 0 .834.834 0 01-1.226 1.131 9.306 9.306 0 00-13.683 0 .837.837 0 01-1.18.048zm8.02 4.849a1.413 1.413 0 11-1.413 1.414 1.415 1.415 0 011.414-1.415zm2.287-.422a2.932 2.932 0 00-4.574 0A.834.834 0 114.7 8.1a4.6 4.6 0 017.175 0 .834.834 0 11-1.3 1.045zm2.288-2.229A.835.835 0 0014.109 5.8a7.787 7.787 0 00-11.643 0 .835.835 0 001.247 1.111 6.119 6.119 0 019.15 0z" fill="#fff"/></svg>