<?xml version="1.0" encoding="utf-8"?>
<!-- Generator: Adobe Illustrator 26.0.3, SVG Export Plug-In . SVG Version: 6.00 Build 0)  -->
<svg version="1.1" id="Layer_1" xmlns="http://www.w3.org/2000/svg" xmlns:xlink="http://www.w3.org/1999/xlink" x="0px" y="0px"
	 viewBox="0 0 578.7 45.4" style="enable-background:new 0 0 578.7 45.4;" xml:space="preserve">
<style type="text/css">
	.st0{fill:#FFFFFF;}
</style>
<g id="Layer_2_00000138536972696973785300000006316535152878582677_">
	<g id="Layer_1-2">
		<path class="st0" d="M40.8,44.6h-0.6c-3,0-6,0-9,0c-0.5,0-0.6-0.2-0.7-0.6c-0.9-2.8-1.7-5.6-2.6-8.4c-0.1-0.4-0.3-0.6-0.8-0.6
			c-4.8,0-9.6,0-14.3,0c-0.4-0.1-0.7,0.2-0.8,0.6c0,0,0,0,0,0c-0.9,2.8-1.7,5.7-2.6,8.5c-0.1,0.3-0.1,0.5-0.6,0.5
			c-2.8,0-5.6,0-8.4,0H0.1c0.5-1.8,1.1-3.6,1.7-5.3C5.8,26.9,9.9,14.5,13.9,2.2c0.1-0.4,0.4-0.6,0.8-0.6c3.8,0,7.7,0,11.6,0
			c0.4-0.1,0.7,0.2,0.7,0.5c0,0,0,0,0,0c3,9.2,5.9,18.3,8.9,27.5l4.7,14.4C40.7,44.2,40.7,44.4,40.8,44.6z M25.5,28.1
			C23.6,22,21.8,15.9,20,9.8h-0.1l-5.7,18.3H25.5z"/>
		<path class="st0" d="M285.7,30.8h-22.6c0,1.3,0.2,2.6,0.7,3.8c1,2.6,3.5,4.4,6.4,4.4c1.5,0.2,3.1-0.1,4.5-0.7
			c1.3-0.6,2.3-1.8,2.6-3.2c0-0.2,0.3-0.4,0.4-0.4c2.6,0,5.2,0,7.7,0h0.1c-0.2,1.3-0.6,2.7-1.2,3.9c-1.2,2.4-3.3,4.3-5.8,5.2
			c-5.2,2.2-11.1,2.1-16.2-0.3c-4.6-2.2-7.2-6-8-11c-0.7-3.6-0.3-7.3,1.1-10.7c1.9-4.7,6.1-8.1,11.1-9c3.1-0.7,6.4-0.5,9.4,0.5
			c4.7,1.4,8.2,5.3,9.1,10.1C285.7,25.8,285.9,28.3,285.7,30.8z M277.2,25.4c-0.2-4.5-2.5-6.7-6.2-6.9c-5.2-0.3-7.3,3.5-7.8,6.9
			H277.2z"/>
		<path class="st0" d="M139.3,30.8h-22.6c0,3.9,2,7.3,5.7,8c1.7,0.4,3.4,0.3,5-0.2c1.7-0.5,3-1.8,3.4-3.5c0.1-0.2,0.3-0.4,0.4-0.4
			c2.6,0,5.2,0,8,0c-0.1,0.4-0.1,0.7-0.2,1.1c-0.7,3.8-3.4,6.9-7,8.2c-4.9,2-10.4,2-15.3-0.1c-5.1-2.1-7.9-6.1-8.7-11.4
			c-0.7-3.6-0.3-7.4,1.2-10.8c2-4.8,6.5-8.2,11.6-8.9c3.1-0.6,6.4-0.3,9.4,0.8c4.4,1.6,7.6,5.3,8.6,9.9
			C139.3,25.9,139.5,28.4,139.3,30.8z M130.8,25.4c-0.1-0.6-0.2-1.2-0.3-1.8c-0.3-2.1-1.6-3.8-3.6-4.6c-1.7-0.7-3.5-0.7-5.2-0.2
			c-3.2,1-4.4,3.5-5,6.6L130.8,25.4z"/>
		<path class="st0" d="M173,44.6h-8.7v-0.7c0-6,0-12,0-18c0-0.9-0.1-1.9-0.3-2.8c-0.3-1.8-1.8-3.2-3.7-3.4c-2.4-0.4-4.5-0.1-6.3,1.7
			c-1,1-1.6,2.4-1.7,3.8c-0.1,0.7-0.1,1.3-0.1,2v17.4h-8.7V13.2h8.6V18c0.2-0.2,0.2-0.3,0.3-0.4c1.7-2.8,4.6-4.6,7.8-5
			c2.4-0.4,5-0.1,7.2,0.9c2.7,1.3,4.5,3.9,5,6.8c0.3,1.3,0.4,2.6,0.5,3.9c0,6.6,0,13.3,0,19.9C173,44.3,173,44.4,173,44.6z"/>
		<path class="st0" d="M198.8,13.2h8.6v0.7c0,6,0,12,0,18c0,0.9,0.1,1.7,0.2,2.6c0.5,2.7,2.4,4.1,5.3,4c3.4,0.1,6.2-2.5,6.4-5.8
			c0-0.1,0-0.1,0-0.2c0-0.5,0.1-1,0.1-1.5V13.2h8.6v31.4h-8.6V40c-0.1,0.1-0.2,0.1-0.2,0.1c-2.1,3.6-5.4,5.1-9.4,5.2
			c-1.9,0.1-3.8-0.2-5.5-1c-2.7-1.3-4.6-3.8-5.2-6.7c-0.3-1.3-0.4-2.7-0.5-4c0-6.6,0-13.2,0-19.8C198.8,13.5,198.8,13.4,198.8,13.2z
			"/>
		<path class="st0" d="M72.5,24.6h-0.3h-7.9c-0.1-0.4-0.2-0.7-0.3-1c-0.5-2.2-2.3-3.9-4.5-4.2c-3-0.5-5.5,0.2-7.4,2.8
			c-0.9,1.4-1.5,2.9-1.6,4.6c-0.3,2.2-0.1,4.4,0.4,6.5c1,3.9,5,6.3,8.9,5.3c0.5-0.1,1-0.3,1.5-0.6c1.8-0.9,3.1-2.7,3.3-4.7
			c0-0.2,0.1-0.4,0.1-0.6h7.8c0,1.2-0.2,2.4-0.6,3.5c-1.1,3.7-3.9,6.6-7.4,7.8c-4.6,1.8-9.8,1.7-14.3-0.2c-5-2.1-7.7-6.1-8.5-11.4
			c-0.6-3.2-0.3-6.6,0.8-9.7c2.1-5.7,6.3-8.9,12.2-10c3.4-0.6,7-0.3,10.2,1c4,1.5,6.9,5.2,7.4,9.4C72.4,23.6,72.4,24.1,72.5,24.6z"
			/>
		<path class="st0" d="M98,32.7h7.9c-0.1,1.9-0.6,3.8-1.4,5.5c-1.5,3-4.1,5.2-7.3,6.2c-4.2,1.5-8.8,1.4-12.9-0.2
			c-5.3-2-8.3-5.9-9.3-11.4c-0.7-3.4-0.4-6.9,0.7-10.1c1.7-5.2,6.2-8.9,11.5-9.8c3.6-0.8,7.4-0.5,10.8,0.9c4,1.5,6.8,5,7.4,9.1
			c0.1,0.6,0.2,1.2,0.3,1.8c-0.2,0-0.3,0-0.5,0h-7.3c-0.3,0-0.5-0.1-0.6-0.5c-0.8-3.6-3.3-5.1-6.8-4.8c-3.3,0.2-5.5,2.1-6.4,5.4
			c-0.9,3-0.8,6.2,0.2,9.1c1.2,3.5,4,5,7.3,4.8C95.3,38.4,97.2,36.6,98,32.7z"/>
		<path class="st0" d="M578.7,29.9h-23.6c0,1.5,0.2,3,0.7,4.5c1,3.9,4.6,6.6,8.6,6.5c1.3,0,2.6-0.1,3.9-0.3c2.7-0.3,4.8-2.4,5.2-5.1
			h5c0,0.2-0.1,0.5-0.1,0.7c-0.7,3.3-3,6.1-6.1,7.4c-4.3,2-9.3,2-13.7,0.1c-3.6-1.5-6.4-4.4-7.6-8.2c-1.6-4.5-1.6-9.4,0.2-13.9
			c2.2-5.7,6.5-8.8,12.6-9.2c3.9-0.4,7.7,0.9,10.5,3.5c2.1,2.1,3.5,4.8,4,7.7C578.7,25.8,578.8,27.9,578.7,29.9z M573.6,25.8
			c-0.2-0.9-0.2-1.8-0.4-2.6c-0.4-2.4-2-4.5-4.2-5.6c-4.6-2.3-10.2-0.4-12.5,4.2c-0.2,0.4-0.3,0.8-0.5,1.2c-0.3,0.9-0.5,1.9-0.8,2.9
			L573.6,25.8z"/>
		<path class="st0" d="M397.7,29.9h-23.8c0.3,4,1.1,7.8,5,9.9c1.7,0.9,3.6,1.3,5.5,1.2c1.4,0,2.8-0.2,4.1-0.7
			c1.9-0.7,3.3-2.3,3.7-4.3c0-0.2,0.1-0.3,0.1-0.4h5c-0.6,4-3.4,7.3-7.2,8.6c-3.8,1.4-8,1.4-11.9,0.1c-4.1-1.4-7.3-4.7-8.6-8.8
			c-1.5-4.3-1.4-8.9,0.1-13.1c2.1-5.9,6.4-9.2,12.8-9.6c3.7-0.4,7.5,0.8,10.3,3.2c2.4,2.1,3.9,5,4.3,8.1
			C397.5,25.9,397.5,27.9,397.7,29.9z M392.4,25.8c0-0.4-0.1-0.8-0.1-1.1c-0.2-1.4-0.5-2.7-1.2-3.9c-1.3-2.4-3.8-3.9-6.5-4
			c-3.4-0.3-6.3,0.6-8.4,3.4c-1.2,1.6-1.9,3.6-2.2,5.6L392.4,25.8z"/>
		<path class="st0" d="M180.1,19.4h-4v-6.2h4V6.4h8.7v6.7h6.6v6.2h-6.6V20c0,4.9,0,9.7,0,14.6c0,0.4,0,0.7,0.1,1.1
			c0.2,1.4,1.4,2.5,2.9,2.5c0.6,0,1.3,0,1.9-0.1c0.6-0.1,1.2-0.2,1.9-0.4c0,0.1,0,0.3,0,0.4c0,1.9,0,3.8,0,5.8c0,0.3,0,0.5-0.4,0.6
			c-3.1,1-6.5,1-9.6,0c-3.3-1.1-4.9-3.6-5.4-6.9c-0.1-0.7-0.1-1.5-0.1-2.3c0-5.1,0-10.1,0-15.1L180.1,19.4z"/>
		<path class="st0" d="M442.8,26.1c-0.1-1.8-0.2-3.5-0.5-5.2c-0.3-2.1-2-3.8-4.1-4c-1.6-0.3-3.2-0.3-4.8,0.1
			c-2.3,0.4-4.2,2.3-4.5,4.6c0,0.2-0.1,0.4-0.1,0.7h-5c0-1,0.3-2,0.6-3c1-2.9,3.4-5,6.3-5.9c3.2-1.1,6.7-1.2,10-0.3
			c4,1.1,6.1,3.8,6.8,7.8c0.2,1,0.2,2.1,0.2,3.1c0,6.6,0,13.2,0,19.7v0.7h-5v-3.8c-0.3,0.4-0.6,0.7-0.9,0.9
			c-2.1,2.3-5.1,3.5-8.2,3.5c-1.7,0.1-3.5-0.1-5.2-0.6c-4-1.3-6.2-4.5-6.1-9c0.1-3.2,1.9-6,4.8-7.3c2.2-1.1,4.6-1.8,7-1.9
			c2.6-0.2,5.1-0.2,7.7-0.2L442.8,26.1z M442.7,29.8c-0.1,0-0.3,0-0.4,0c-2.1,0-4.2,0-6.4,0.1c-1.7,0.1-3.5,0.4-5.1,1.1
			c-2.3,0.8-3.7,3-3.5,5.4c-0.2,2.4,1.5,4.4,3.9,4.7c2.5,0.5,5,0.2,7.3-0.9c2-0.9,3.5-2.7,3.9-4.9C442.7,33.4,442.6,31.6,442.7,29.8
			z"/>
		<path class="st0" d="M323,44.6h-5V13.2h5v4.7c0.5-0.7,1-1.3,1.5-1.9c2-2.1,4.8-3.3,7.7-3.4c2.2-0.2,4.4,0.2,6.4,1.1
			c2.7,1.4,4.6,4,5,7c0.3,1.4,0.4,2.8,0.5,4.2c0,6.4,0,12.8,0,19.1c0,0.2,0,0.3,0,0.5h-5v-0.7c0-6.3,0-12.5,0-18.8
			c0-1.3-0.2-2.5-0.5-3.8c-0.4-2-2-3.6-4-4c-2.5-0.7-5.2-0.5-7.5,0.7c-2.7,1.4-4.3,4.2-4.2,7.2c0,6.2,0,12.3,0,18.5V44.6z"/>
		<path class="st0" d="M242.6,13.2v5.6c1.8-3.9,5.8-6.4,10.1-6.1v8.1c-1,0.1-2.1,0.1-3.1,0.2c-1,0.1-1.9,0.4-2.9,0.7
			c-2.4,0.9-4,3.2-4.1,5.8c-0.1,0.8-0.1,1.6-0.1,2.3c0,4.7,0,9.4,0,14.1v0.7h-8.7V13.2H242.6z"/>
		<path class="st0" d="M482.7,23.6c-1.6,0-3.1,0-4.7,0c-0.1,0-0.3-0.3-0.3-0.5c-0.4-2.4-2-4.5-4.2-5.5c-1.1-0.5-2.4-0.8-3.6-0.8
			c-4.4-0.4-8.5,2.2-9.9,6.3c-1.5,3.8-1.5,8.1,0.1,11.9c1.5,3.7,4.4,5.6,8.4,5.8c1.9,0.2,3.7-0.2,5.4-1c2.3-1.1,3.9-3.3,4.3-5.8
			c0-0.2,0.1-0.5,0.1-0.7h4.8c-0.2,1.1-0.5,2.1-0.8,3.2c-1.5,4.4-5.4,7.7-10,8.4c-4.4,0.9-9.1-0.1-12.7-2.9c-2.9-2.2-4.8-5.4-5.4-9
			c-0.9-4-0.4-8.3,1.3-12c2.3-5,7.2-8.2,12.7-8.3c3.5-0.4,7,0.6,9.9,2.6c2.6,1.9,4.3,4.9,4.6,8.1C482.7,23.5,482.7,23.5,482.7,23.6z
			"/>
		<path class="st0" d="M530.2,44.6l-11.4-31.4h5.5c3.1,8.7,6.2,17.5,9.3,26.3l9.2-26.3h5.2c-0.5,1.5-1.1,3-1.6,4.5
			c-3.1,8.8-6.3,17.5-9.4,26.3c-0.1,0.4-0.5,0.7-0.9,0.7c0,0,0,0,0,0C534,44.6,532.2,44.6,530.2,44.6z"/>
		<path class="st0" d="M365.8,40.2c0,1.3,0,2.5,0,3.8c0,0.2-0.1,0.3-0.3,0.4c-3,0.8-6,1-8.8-0.6c-2-1.1-3.4-3.2-3.5-5.6
			c-0.1-0.7-0.1-1.4-0.1-2.2c0-6,0-12,0-18v-0.7h-4.5v-4.2h4.4V6h5v7.1h7.3v4.2H358V18c0,6.1,0,12.2,0,18.3c-0.1,1.2,0.3,2.3,1,3.2
			c1,1,2.4,1.5,3.8,1.2C363.8,40.7,364.8,40.4,365.8,40.2z"/>
		<path class="st0" d="M485.9,13.1h4.4V6h5v7.1h7.3v4.2h-7.3V18c0,6,0,12,0,18c0,0.7,0.1,1.3,0.2,2c0.3,1.7,1.8,2.9,3.5,2.8
			c1.4,0,2.7-0.3,4.1-0.4c0,1.2,0,2.5,0,3.8c0,0.1-0.3,0.3-0.5,0.4c-2.2,0.7-4.6,0.7-6.8,0.1c-1.7-0.4-3.2-1.5-4.2-2.9
			c-0.9-1.5-1.3-3.2-1.3-4.9c0-6.2,0-12.5,0-18.7v-0.7h-4.5L485.9,13.1z"/>
		<path class="st0" d="M303.4,1.6h5.2v42.9h-5.2V1.6z"/>
		<path class="st0" d="M419.5,12.6v4.6c-0.9,0.1-1.8,0.1-2.6,0.3c-0.9,0.2-1.8,0.4-2.7,0.7c-2.6,1-4.4,3.3-4.7,6.1
			c-0.2,1.1-0.2,2.1-0.2,3.2c0,5.4,0,10.8,0,16.2v0.7h-5V13.2h5v5.3l0.1,0.1C411.4,14.5,414.9,12.7,419.5,12.6z"/>
		<path class="st0" d="M513.6,44.6h-4.9V13.2h4.9V44.6z"/>
		<path class="st0" d="M511.1,6.6c-1.8,0-3.3-1.5-3.3-3.3c0.1-1.8,1.7-3.3,3.5-3.2c1.7,0.1,3.1,1.5,3.2,3.2
			C514.4,5.1,512.9,6.6,511.1,6.6z"/>
	</g>
</g>
</svg>
