<?xml version="1.0" encoding="utf-8"?>
<!-- Generator: Adobe Illustrator 26.0.3, SVG Export Plug-In . SVG Version: 6.00 Build 0)  -->
<svg version="1.1" id="Layer_1" xmlns="http://www.w3.org/2000/svg" xmlns:xlink="http://www.w3.org/1999/xlink" x="0px" y="0px"
	 viewBox="0 0 222.6 97.2" style="enable-background:new 0 0 222.6 97.2;" xml:space="preserve">
<style type="text/css">
	.st0{fill:#FFFFFF;}
</style>
<g id="Layer_2_00000005263787583725327700000010702657405410512799_">
	<g id="Layer_1-2">
		<path class="st0" d="M62.6,62.4H48.9l-5.5-14.2H18.5l-5.2,14.2H0L23,3.3c0.8-2,2.7-3.3,4.8-3.3h6.3c2.1,0,4,1.3,4.8,3.2L62.6,62.4
			z M39.4,37.7l-8.6-23.1l-8.4,23.1H39.4z"/>
		<path class="st0" d="M105.2,62.4H94.1v-6.6c-1.7,2.4-3.9,4.4-6.5,5.8c-2.3,1.2-4.9,1.9-7.6,1.9c-5.2,0-10.1-2.3-13.3-6.3
			c-3.7-4.2-5.6-10-5.6-17.5c0-7.7,1.8-13.5,5.4-17.5c3.4-3.9,8.4-6.1,13.7-6c5,0,9.4,2.1,13.1,6.3V3.1c0-1.7,1.4-3.1,3.1-3.1h5.8
			c1.7,0,3.1,1.4,3.1,3.1c0,0,0,0,0,0L105.2,62.4z M73.3,38.8c0,4.8,0.7,8.3,2,10.5c1.6,3,4.7,4.8,8.1,4.7c2.8,0,5.3-1.3,7-3.5
			c1.9-2.3,2.9-5.8,2.9-10.5c0-5.2-0.9-8.9-2.8-11.2c-3.2-4-9-4.5-13-1.3c-0.5,0.4-0.9,0.8-1.3,1.3C74.2,31,73.3,34.3,73.3,38.8z"/>
		<path class="st0" d="M118.7,30.5l-4.7-0.9c-1.7-0.3-2.8-1.9-2.5-3.7c0.1-0.3,0.1-0.6,0.3-0.8c1.1-2.3,2.8-4.4,4.9-5.9
			c3-2.1,7.4-3.1,13.3-3.1c5.3,0,9.3,0.6,11.9,1.9c2.3,1,4.2,2.7,5.5,4.8c1.1,1.9,1.6,5.5,1.6,10.7l-0.1,14
			c-0.1,2.9,0.1,5.9,0.6,8.8c0.5,2.1,1.2,4.1,2.1,6.1h-11.8c-0.3-0.8-0.7-2-1.1-3.5c-0.2-0.7-0.3-1.2-0.4-1.4
			c-1.9,1.9-4.1,3.4-6.6,4.5c-2.4,1-4.9,1.5-7.4,1.5c-4.7,0-8.3-1.3-11-3.8c-2.6-2.5-4.1-6-4-9.6c0-2.4,0.6-4.8,1.8-6.8
			c1.2-2,3-3.6,5.1-4.6c3-1.3,6.2-2.2,9.5-2.8c4-0.6,7.8-1.6,11.6-2.9v-1.2c0-2.3-0.6-3.9-1.7-4.9s-3.3-1.5-6.5-1.5
			c-1.8-0.1-3.5,0.3-5,1.2c-0.8,0.6-1.5,1.4-2,2.4C121.4,30.1,120,30.8,118.7,30.5z M137.2,40.7c-1.5,0.5-4,1.1-7.3,1.8
			s-5.5,1.4-6.5,2.1c-1.5,0.9-2.4,2.5-2.4,4.2c0,1.6,0.7,3.2,1.9,4.3c1.3,1.2,3,1.9,4.8,1.9c2.2,0,4.4-0.8,6.2-2.1
			c1.4-1,2.4-2.4,2.9-4c0.4-1.9,0.6-3.9,0.5-5.8V40.7z"/>
		<path class="st0" d="M157.7,17.2h5.9c1.4,0,2.6,1.2,2.6,2.6v3.6c3.9-4.8,8.6-7.2,14.1-7.2c2.6-0.1,5.2,0.6,7.5,1.8
			c2.2,1.3,4,3.1,5.2,5.4c1.8-2.2,3.9-4.1,6.4-5.4c2.3-1.2,4.8-1.8,7.4-1.8c2.9-0.1,5.9,0.6,8.4,2c2.3,1.4,4.1,3.5,5.1,5.9
			c0.8,1.9,1.2,5,1.2,9.4v28.9h-12V36.5c0-4.5-0.4-7.4-1.2-8.7c-1.1-1.7-3.1-2.7-5.1-2.5c-1.7,0-3.3,0.5-4.7,1.5
			c-1.5,1.1-2.7,2.7-3.2,4.5c-0.8,3-1.1,6.2-1,9.3v21.7h-12V37.6c0-4.4-0.2-7.2-0.6-8.5c-0.3-1.1-1-2.1-2-2.9
			c-1.1-0.7-2.4-1-3.6-0.9c-1.8,0-3.5,0.5-5,1.5c-1.5,1-2.6,2.5-3.2,4.3c-0.6,1.9-1,5-1,9.3v22h-12V19.8c0-1.4,1.2-2.6,2.6-2.6
			C157.6,17.2,157.6,17.2,157.7,17.2z"/>
		<path class="st0" d="M5.8,96.8L1,81.6h3.9l2.8,9.9l2.6-9.9h3.9l2.5,9.9l2.9-9.9h4l-4.9,15.2h-3.9L12.3,87l-2.6,9.8H5.8z"/>
		<path class="st0" d="M33.1,92l4,0.7c-0.4,1.3-1.3,2.5-2.4,3.3c-1.2,0.8-2.7,1.2-4.2,1.2c-2.3,0.2-4.5-0.8-5.9-2.6
			c-1-1.5-1.6-3.4-1.5-5.2c-0.1-2.2,0.6-4.3,2-5.9c1.3-1.4,3.1-2.2,5-2.1c2-0.1,4,0.7,5.4,2.2c1.3,1.5,2,3.8,1.9,6.8H27.2
			c0,1,0.3,2,1,2.8c0.6,0.7,1.4,1,2.3,1c0.6,0,1.1-0.2,1.6-0.5C32.6,93.2,32.9,92.6,33.1,92z M33.3,87.9c0-1-0.3-1.9-0.9-2.7
			c-1.1-1.2-2.9-1.3-4.1-0.2c-0.1,0.1-0.1,0.1-0.2,0.2c-0.6,0.7-0.9,1.7-0.8,2.6L33.3,87.9z"/>
		<path class="st0" d="M48.8,86.3l-3.7-0.7c0.3-1.3,1.1-2.5,2.1-3.3c1.3-0.8,2.9-1.2,4.5-1.1c1.4-0.1,2.7,0.1,4,0.6
			c0.8,0.3,1.4,0.9,1.8,1.6c0.4,1.1,0.6,2.4,0.5,3.6l0,4.7c0,1,0,2,0.2,3c0.2,0.7,0.4,1.4,0.7,2h-4c-0.1-0.3-0.2-0.7-0.4-1.2
			c-0.1-0.2-0.1-0.4-0.1-0.5c-0.6,0.6-1.4,1.1-2.2,1.5c-0.8,0.3-1.6,0.5-2.5,0.5c-1.3,0.1-2.7-0.4-3.7-1.3c-0.9-0.8-1.4-2-1.3-3.2
			c0-0.8,0.2-1.6,0.6-2.3c0.4-0.7,1-1.2,1.7-1.6c1-0.4,2.1-0.8,3.2-0.9c1.3-0.2,2.6-0.6,3.9-1v-0.4c0.1-0.6-0.1-1.2-0.6-1.7
			c-0.6-0.4-1.4-0.6-2.2-0.5C50.2,84.2,49,85,48.8,86.3L48.8,86.3z M54.1,89.5c-0.5,0.2-1.3,0.4-2.4,0.6c-0.8,0.1-1.5,0.4-2.2,0.7
			c-0.5,0.3-0.8,0.8-0.8,1.4c0,0.6,0.2,1.1,0.6,1.4c0.4,0.4,1,0.6,1.6,0.6c0.7,0,1.5-0.3,2-0.7c0.5-0.3,0.8-0.8,1-1.3
			c0.1-0.7,0.2-1.3,0.2-2L54.1,89.5z"/>
		<path class="st0" d="M64.4,96.8h-4V81.6h3.7v2.2c0.4-0.8,1-1.5,1.7-2c0.5-0.3,1.1-0.5,1.7-0.5c0.9,0,1.9,0.3,2.7,0.8L69,85.5
			c-0.6-0.4-1.2-0.6-1.9-0.7c-0.5,0-1,0.2-1.4,0.5c-0.5,0.4-0.8,1-0.9,1.7c-0.3,1.7-0.4,3.4-0.3,5.1V96.8z"/>
		<path class="st0" d="M79.3,92l4,0.7C82.9,94,82,95.2,80.9,96c-1.2,0.8-2.7,1.2-4.2,1.2c-2.7,0-4.6-0.9-5.9-2.6
			c-1-1.5-1.6-3.4-1.5-5.2c-0.1-2.2,0.6-4.3,2-5.9c1.3-1.4,3.1-2.2,5-2.1c2-0.1,4,0.7,5.3,2.2c1.3,1.5,1.9,3.8,1.8,6.9H73.5
			c0,1,0.3,2,1,2.8c0.6,0.7,1.4,1,2.3,1c0.6,0,1.1-0.2,1.6-0.5C78.8,93.2,79.2,92.6,79.3,92z M79.6,87.9c0-1-0.3-1.9-0.9-2.7
			c-0.5-0.6-1.3-0.9-2.1-0.9c-0.8,0-1.6,0.4-2.2,1c-0.6,0.7-0.9,1.7-0.8,2.6L79.6,87.9z"/>
		<path class="st0" d="M95,86.3l-3.7-0.7c0.3-1.3,1.1-2.5,2.1-3.3c1.4-0.8,2.9-1.2,4.5-1.1c1.4-0.1,2.7,0.1,4,0.6
			c0.8,0.3,1.4,0.9,1.8,1.6c0.4,1.1,0.6,2.4,0.5,3.6v4.7c0,1,0,2,0.2,3c0.2,0.7,0.4,1.4,0.7,2h-4c-0.1-0.3-0.2-0.7-0.4-1.2
			c0-0.2-0.1-0.3-0.1-0.5c-0.6,0.6-1.4,1.1-2.2,1.5c-0.8,0.3-1.6,0.5-2.5,0.5c-1.4,0.1-2.7-0.4-3.7-1.3c-0.9-0.8-1.4-2-1.4-3.2
			c0-0.8,0.2-1.6,0.6-2.3c0.4-0.7,1-1.2,1.7-1.6c1-0.4,2.1-0.8,3.2-0.9c1.3-0.2,2.6-0.6,3.9-1v-0.4c0.1-0.6-0.1-1.2-0.6-1.7
			c-0.6-0.4-1.4-0.6-2.2-0.5c-0.6,0-1.2,0.1-1.7,0.4C95.5,85.1,95.2,85.7,95,86.3z M100.4,89.5c-0.5,0.2-1.3,0.4-2.4,0.6
			c-0.8,0.1-1.5,0.4-2.2,0.7c-0.5,0.3-0.8,0.9-0.7,1.4c0,0.6,0.2,1.1,0.6,1.4c0.4,0.4,1,0.6,1.6,0.6c0.7,0,1.5-0.3,2.1-0.7
			c0.5-0.3,0.8-0.8,1-1.3c0.1-0.7,0.2-1.3,0.2-2L100.4,89.5z"/>
		<path class="st0" d="M120.8,96.8H117v-2.2c-0.6,0.8-1.3,1.5-2.2,1.9c-0.8,0.4-1.7,0.6-2.6,0.6c-1.7,0-3.4-0.8-4.4-2.2
			c-1.3-1.7-2-3.8-1.9-5.9c-0.2-2.1,0.5-4.2,1.8-5.9c1.2-1.3,2.8-2,4.6-2c1.7,0,3.3,0.8,4.4,2.1v-7.5h4L120.8,96.8z M110,88.9
			c-0.1,1.2,0.1,2.4,0.7,3.5c0.5,1,1.6,1.6,2.8,1.6c0.9,0,1.8-0.4,2.4-1.2c0.7-1,1.1-2.3,1-3.5c0.1-1.3-0.2-2.6-0.9-3.8
			c-0.6-0.7-1.5-1.2-2.4-1.2c-0.9,0-1.8,0.4-2.4,1.1C110.3,86.5,109.9,87.7,110,88.9z"/>
		<path class="st0" d="M126.3,86.3l-3.6-0.7c0.3-1.3,1-2.5,2.1-3.3c1.3-0.8,2.9-1.2,4.5-1.1c1.4-0.1,2.7,0.1,4,0.6
			c0.8,0.3,1.4,0.9,1.9,1.6c0.4,1.1,0.6,2.4,0.5,3.6v4.7c0,1,0,2,0.2,3c0.2,0.7,0.4,1.4,0.7,2h-4c-0.1-0.3-0.2-0.7-0.4-1.2
			c0-0.2-0.1-0.3-0.1-0.5c-0.6,0.6-1.4,1.1-2.2,1.5c-0.8,0.3-1.6,0.5-2.5,0.5c-1.4,0.1-2.7-0.4-3.7-1.3c-0.9-0.8-1.4-2-1.3-3.2
			c0-0.8,0.2-1.6,0.6-2.3c0.4-0.7,1-1.2,1.7-1.6c1-0.4,2.1-0.8,3.2-0.9c1.3-0.2,2.6-0.6,3.9-1v-0.4c0.1-0.6-0.1-1.2-0.6-1.7
			c-0.6-0.4-1.4-0.6-2.2-0.5C127.7,84.2,126.5,85,126.3,86.3L126.3,86.3z M131.6,89.5c-0.5,0.2-1.3,0.4-2.4,0.6
			c-0.8,0.1-1.5,0.4-2.2,0.7c-0.5,0.3-0.8,0.8-0.8,1.4c0,0.6,0.2,1.1,0.6,1.4c0.4,0.4,1,0.6,1.6,0.6c0.7,0,1.5-0.3,2.1-0.7
			c0.5-0.3,0.8-0.8,1-1.3c0.1-0.7,0.2-1.3,0.2-2L131.6,89.5z"/>
		<path class="st0" d="M137.8,81.6h3.7v2.1c1.1-1.5,2.9-2.4,4.7-2.4c0.9,0,1.8,0.2,2.5,0.6c0.7,0.4,1.3,1.1,1.8,1.8
			c0.6-0.7,1.3-1.4,2.2-1.8c0.8-0.4,1.6-0.6,2.5-0.6c1,0,2,0.2,2.9,0.7c0.8,0.5,1.4,1.2,1.7,2c0.3,1,0.5,2.1,0.4,3.2v9.7h-4v-8.7
			c0.1-1,0-2-0.4-2.9c-0.4-0.6-1-0.9-1.7-0.9c-0.6,0-1.1,0.2-1.6,0.5c-0.5,0.4-0.9,0.9-1.1,1.5c-0.3,1-0.4,2.1-0.3,3.1v7.3h-4v-8.3
			c0.1-1,0-1.9-0.2-2.9c-0.1-0.4-0.3-0.8-0.7-1c-0.4-0.2-0.8-0.3-1.2-0.3c-0.6,0-1.2,0.2-1.7,0.5c-0.5,0.4-0.9,0.9-1.1,1.4
			c-0.3,1-0.4,2.1-0.3,3.1v7.4h-4L137.8,81.6z"/>
		<path class="st0" d="M162.6,96.8v-4h4v4H162.6z"/>
		<path class="st0" d="M182.6,86.1l-4,0.7c-0.1-0.7-0.4-1.3-0.9-1.8c-0.5-0.4-1.2-0.6-1.8-0.6c-0.9,0-1.8,0.3-2.4,1
			c-0.7,1-1,2.2-0.9,3.5c-0.1,1.3,0.2,2.7,0.9,3.8c0.6,0.7,1.5,1.1,2.4,1.1c0.7,0,1.4-0.2,1.9-0.7c0.6-0.6,0.9-1.4,1-2.2l3.9,0.7
			c-0.3,1.6-1.1,3-2.4,4.1c-1.4,1-3,1.5-4.7,1.4c-2,0.1-3.9-0.7-5.3-2.1c-1.4-1.6-2.1-3.7-2-5.8c-0.1-2.1,0.6-4.2,2-5.9
			c1.4-1.4,3.4-2.2,5.4-2.1c1.6-0.1,3.1,0.3,4.4,1.2C181.3,83.3,182.2,84.6,182.6,86.1z"/>
		<path class="st0" d="M183.2,89c0-1.4,0.4-2.7,1-3.9c0.6-1.2,1.6-2.2,2.8-2.9c1.2-0.7,2.6-1,4-1c2.1-0.1,4.2,0.7,5.6,2.2
			c1.5,1.5,2.3,3.5,2.2,5.7c0.1,2.1-0.7,4.2-2.2,5.7c-1.5,1.5-3.5,2.3-5.6,2.3c-1.4,0-2.8-0.3-4-0.9c-1.2-0.6-2.2-1.6-2.9-2.8
			C183.5,92.1,183.1,90.5,183.2,89z M187.3,89.2c-0.1,1.2,0.3,2.5,1.1,3.5c0.7,0.8,1.6,1.2,2.6,1.2c1,0,2-0.4,2.6-1.2
			c0.8-1,1.1-2.2,1.1-3.5c0.1-1.2-0.3-2.5-1.1-3.4c-0.7-0.8-1.6-1.2-2.6-1.2c-1,0-2,0.4-2.6,1.2C187.6,86.7,187.2,88,187.3,89.2z"/>
		<path class="st0" d="M200.3,81.6h3.7v2.1c1.1-1.5,2.9-2.4,4.7-2.4c0.9,0,1.8,0.2,2.5,0.6c0.7,0.4,1.3,1.1,1.7,1.8
			c0.6-0.7,1.3-1.4,2.2-1.8c0.8-0.4,1.6-0.6,2.5-0.6c1,0,2,0.2,2.8,0.7c0.8,0.5,1.4,1.2,1.7,2c0.3,1,0.5,2.1,0.4,3.2v9.7h-4v-8.7
			c0.1-1-0.1-2-0.4-2.9c-0.4-0.6-1-0.9-1.7-0.9c-0.6,0-1.1,0.2-1.6,0.5c-0.5,0.4-0.9,0.9-1.1,1.5c-0.3,1-0.4,2.1-0.3,3.1v7.3h-4
			v-8.3c0-1,0-1.9-0.2-2.9c-0.1-0.4-0.3-0.8-0.7-1c-0.4-0.2-0.8-0.3-1.2-0.3c-0.6,0-1.2,0.2-1.7,0.5c-0.5,0.4-0.9,0.9-1.1,1.4
			c-0.3,1-0.4,2.1-0.3,3.1v7.4h-4L200.3,81.6z"/>
	</g>
</g>
</svg>
