<?xml version="1.0" encoding="utf-8"?>
<!-- Generator: Adobe Illustrator 26.0.3, SVG Export Plug-In . SVG Version: 6.00 Build 0)  -->
<svg version="1.1" id="Layer_1" xmlns="http://www.w3.org/2000/svg" xmlns:xlink="http://www.w3.org/1999/xlink" x="0px" y="0px"
	 viewBox="0 0 326 233.7" style="enable-background:new 0 0 326 233.7;" xml:space="preserve">
<style type="text/css">
	.st0{fill-rule:evenodd;clip-rule:evenodd;fill:#FFFFFF;}
	.st1{fill:#FFFFFF;}
</style>
<g id="Layer_2_00000182508842966193149290000001324489154518653319_">
	<g id="Layer_1-2">
		<path class="st0" d="M233.4,70c11.6,0,21.1,9.4,21.1,21.1c0,11.6-9.4,21.1-21.1,21.1c-3.6,0-7.2-0.9-10.3-2.7
			c-1.2,3.8-2.7,7.4-4.5,10.9c11.2,3.2,17.7,14.8,14.5,26c-3.2,11.2-14.8,17.7-26,14.5c-7-2-12.5-7.5-14.5-14.5
			c-3.5,1.8-7.1,3.4-10.9,4.5c5.7,10.2,2,23-8.1,28.7c-10.2,5.7-23,2-28.7-8.1c-3.6-6.4-3.6-14.2,0-20.5c-3.8-1.2-7.4-2.7-10.9-4.5
			c-3.2,11.2-14.8,17.7-26,14.6c-11.2-3.2-17.7-14.8-14.6-26c2-7.1,7.5-12.6,14.6-14.6c-1.8-3.5-3.4-7.1-4.5-10.9
			c-10.2,5.7-23,2-28.7-8.1s-2-23,8.1-28.7c6.4-3.6,14.2-3.6,20.5,0c1.2-3.8,2.7-7.4,4.5-10.9c-11.2-3.2-17.7-14.8-14.6-26
			c3.2-11.2,14.8-17.7,26-14.6c7.1,2,12.6,7.5,14.6,14.6c3.5-1.8,7.1-3.4,10.9-4.5c-5.7-10.2-2-23,8.1-28.7c10.2-5.7,23-2,28.7,8.1
			c3.6,6.4,3.6,14.2,0,20.5c3.8,1.2,7.4,2.7,10.9,4.5c3.2-11.2,14.8-17.7,26-14.5s17.7,14.8,14.5,26c-2,7-7.5,12.5-14.5,14.5
			c1.8,3.5,3.4,7.1,4.5,10.9C226.2,70.9,229.8,70,233.4,70z M200.9,152.5c6.6,6.6,17.2,6.6,23.8,0s6.6-17.2,0-23.8
			c-6.6-6.6-17.2-6.6-23.8,0c-6.7,6.5-7,17-0.6,23.6C200.5,152.5,200.6,152.6,200.9,152.5L200.9,152.5z M163.3,178
			c9.3,0,16.9-7.5,16.9-16.9s-7.5-16.9-16.9-16.9c-9.3,0-16.9,7.5-16.9,16.9c0,0,0,0,0,0C146.5,170.5,154,178,163.3,178z
			 M101.9,128.7c-6.6,6.6-6.6,17.3,0,23.8c6.6,6.6,17.3,6.6,23.8,0c6.6-6.6,6.6-17.2,0-23.8C119.1,122.1,108.5,122.1,101.9,128.7
			C101.9,128.7,101.9,128.7,101.9,128.7z M93.3,74.2c-9.3,0-16.9,7.5-16.9,16.8S83.9,108,93.3,108s16.9-7.5,16.9-16.8c0,0,0,0,0,0
			C110.1,81.8,102.6,74.3,93.3,74.2z M125.7,29.7c-6.6-6.6-17.3-6.6-23.8,0c-6.6,6.6-6.6,17.3,0,23.8s17.3,6.6,23.8,0c0,0,0,0,0,0
			C132.3,46.9,132.3,36.2,125.7,29.7z M163.3,4.2c-9.3,0-16.9,7.5-16.9,16.9s7.5,16.9,16.9,16.9s16.9-7.5,16.9-16.9c0,0,0,0,0,0
			C180.2,11.8,172.6,4.2,163.3,4.2z M190.3,40.4c-1.6-0.9-3.3-1.7-5-2.4s-3.5-1.3-5.2-1.9l-16.8,20.2l-16.8-20.2
			c-3.6,1.1-7,2.5-10.3,4.2l2.5,26.2l-26.2-2.4c-0.9,1.6-1.7,3.3-2.4,5c-0.7,1.7-1.3,3.5-1.9,5.2l20.2,16.8l-20.2,16.8
			c1.1,3.6,2.5,7,4.2,10.3l26.2-2.5l-2.5,26.2c1.6,0.9,3.3,1.7,5,2.4s3.5,1.3,5.2,1.9l16.8-20.2l16.8,20.2c3.6-1.1,7-2.5,10.3-4.3
			l-2.4-26.2l26.1,2.5c0.9-1.6,1.7-3.3,2.4-5s1.3-3.5,1.9-5.2l-20.2-16.8l20.2-16.8c-1.1-3.6-2.5-7-4.2-10.3l-26.2,2.5L190.3,40.4z
			 M224.8,53.5c6.6-6.6,6.6-17.2,0-23.8s-17.2-6.6-23.8,0c-6.6,6.6-6.6,17.2,0,23.8C207.5,60.1,218.2,60.1,224.8,53.5z M216.5,91.1
			c0,9.3,7.5,16.9,16.9,16.9c9.3,0,16.9-7.5,16.9-16.9s-7.5-16.9-16.9-16.9c0,0,0,0,0,0C224,74.3,216.5,81.8,216.5,91.1z
			 M163.3,101.2c-5.6,0-10.1-4.5-10.1-10.1S157.7,81,163.3,81c5.6,0,10.1,4.5,10.1,10.1c0,0,0,0,0,0
			C173.4,96.7,168.9,101.2,163.3,101.2z"/>
		<path class="st1" d="M9.4,210.3v23.1H7v-23.1H0v-2.2h16.3v2.2H9.4z"/>
		<path class="st1" d="M35.8,233.3v-12H23.5v12h-2.4v-25.3h2.4v11.1h12.4v-11.1h2.4v25.3L35.8,233.3z"/>
		<path class="st1" d="M57.8,221.3H46.7v9.8H59v2.2H44.3v-25.3H59v2.2H46.7v8.8h11.1V221.3z"/>
		<path class="st1" d="M86.7,233.3l-2.3-7.1h-9.6l-2.3,7.1h-2.6l8.9-25.6h1.7l8.9,25.6H86.7z M75.4,224.2h8.3l-4.1-12.6L75.4,224.2z
			"/>
		<path class="st1" d="M93.3,220.7c0-7.2,2.4-13,10-13c2.4-0.1,4.9,0.4,7.1,1.4v2.3c-2.2-1-4.6-1.6-7.1-1.6c-5.5,0-7.4,4.7-7.4,10.8
			s1.9,10.8,7.4,10.8c1.8,0.1,3.6-0.2,5.3-0.7v-8.5h-5.2V220h7.5v12.3c-2.5,1-5.1,1.5-7.8,1.4C95.7,233.7,93.3,227.9,93.3,220.7z"/>
		<path class="st1" d="M130.5,221.3h-11.1v9.8h12.3v2.2h-14.7v-25.3h14.7v2.2h-12.3v8.8h11.1V221.3z"/>
		<path class="st1" d="M153.1,233.3l-13.6-20.5l0.1,20.5h-2.3v-25.3h1.7l13.6,20.5l-0.1-20.5h2.3v25.3L153.1,233.3z"/>
		<path class="st1" d="M170.3,207.7c2.3-0.1,4.5,0.3,6.6,1.2v2.3c-2.1-0.9-4.3-1.3-6.6-1.3c-5.5,0-7.4,4.7-7.4,10.8
			s1.9,10.8,7.4,10.8c2.3,0,4.5-0.4,6.6-1.3v2.3c-2.1,0.8-4.3,1.2-6.6,1.2c-7.5,0-9.9-5.8-9.9-13S162.8,207.7,170.3,207.7z"/>
		<path class="st1" d="M192.4,222.9v10.4H190v-10.4l-9.1-14.8h2.9l7.4,12.7l7.4-12.7h2.9L192.4,222.9z"/>
		<path class="st1" d="M226.3,208.1l5.7,21.8l4.3-21.8h2.6l-5.6,25.6h-2.4l-5.9-22.1l-5.9,22.1h-2.4l-5.6-25.6h2.6l4.3,21.8
			l5.7-21.8L226.3,208.1z"/>
		<path class="st1" d="M252.3,233.7c-8.2,0-9.4-6.4-9.4-13s1.2-13,9.4-13s9.4,6.4,9.4,13S260.6,233.7,252.3,233.7z M252.3,209.9
			c-6.1,0-6.9,5-6.9,10.8s0.8,10.8,6.9,10.8s6.9-5,6.9-10.8S258.4,209.9,252.3,209.9L252.3,209.9z"/>
		<path class="st1" d="M269.7,233.3h-2.4v-25.3h7.9c6.3,0,8.3,2.8,8.3,7.1c0,3.4-1.2,5.8-4.6,6.7l6,11.4h-3l-5.5-11.1
			c-0.4,0-0.7,0-1.1,0h-5.5V233.3z M269.7,220.1h6c4.5,0,5.2-2.2,5.2-4.9s-0.7-4.9-5.2-4.9h-6V220.1z"/>
		<path class="st1" d="M291.6,223.6v9.7h-2.3v-25.3h2.3v12.6l10.4-12.6h3.1l-9.8,11.3l10.9,14H303l-9.2-12.2L291.6,223.6z"/>
		<path class="st1" d="M312,214.8c0,3.4,2.2,3.8,6.2,4.3c5,0.6,7.9,2.2,7.9,6.9c0,3.4-1.8,7.6-9.3,7.6c-2.4,0-4.8-0.5-7.1-1.4v-2.2
			c2.3,0.9,4.7,1.4,7.1,1.4c5.2,0,6.8-2.4,6.8-5.5c0-3.4-1.6-4.2-5.8-4.7c-6-0.7-8.1-2.5-8.1-6.6c0-2.9,1.4-7.1,8.5-7.1
			c2.2-0.1,4.5,0.3,6.6,1.2v2.3c-2.1-0.9-4.3-1.4-6.6-1.3C313.1,209.9,312,212.1,312,214.8z"/>
	</g>
</g>
</svg>
