<svg xmlns="http://www.w3.org/2000/svg" viewBox="0 0 1087.92 322.42"><defs><style>.cls-1{fill:#fff;}</style></defs><g id="Layer_2" data-name="Layer 2"><g id="Layer_1-2" data-name="Layer 1"><path class="cls-1" d="M555.85,0C562.56,2.85,569.1,5.73,574,11.66c8.66,10.48,12.39,22.65,13.37,35.87C589,68.79,581.8,87.77,571.79,106q-7.45,13.58-14.82,27.2a48,48,0,0,0-2,4.82c4.29.49,7.88,1.13,11.49,1.27q18.94.75,37.92,1.2c9.74.23,13.18,3.32,13.12,12.15-.06,9.23-4.71,14-13.73,14-21.5,0-43,0-64.5-.11-3.74,0-6.14,1-8.14,4.34-5.76,9.55-12.18,18.73-17.65,28.44-1.9,3.39-2.28,7.88-2.51,11.92-.93,16.66-1,33.34,5.46,49.13,5.79,14.09,16.85,19.16,31.11,13.84,6.78-2.52,13.68-5.86,19.17-10.44,11.85-9.89,22.82-20.83,34.18-31.32a63.07,63.07,0,0,1,7.51-6.49,8.35,8.35,0,0,1,10.27.49c3.2,2.46,4.21,5.81,3.32,9.79-3.29,14.68-11.33,26.63-21.93,36.84-15.77,15.18-32.75,28.55-52.81,38.14-29.22,14-50-1.91-60-22.42C483,280,480.5,270.4,477.19,261.19c-.43-1.2-1-2.36-1.78-4.27-2,2.57-3.64,4.62-5.27,6.64-14.52,18-33.3,30.63-53.74,40.76-9.16,4.55-18.79,8.94-28.71,11-21.69,4.57-40.83-2.2-57.05-17-3.33-3-5.1-3.05-8.55-.18-10.72,8.88-22.37,16.33-36.43,18.76-11.59,2-21.6-1-28.74-10.71-3.24-4.38-5.63-9.39-8.34-14.15a25.13,25.13,0,0,0-4.44-6.35c-.92,1.59-1.55,3.47-2.79,4.74a98.14,98.14,0,0,1-38.11,24.09c-27.71,9.76-52.68-7.43-60-33.34-.35-1.23-.8-2.43-1.42-4.27-1.36,1.26-2.33,2-3.16,2.95-17.38,18.85-38.7,31-63.75,35.91C41,322.53,5.32,296.72,1.18,262.49-3,228,3.54,196,27.32,169.38c12.23-13.71,26.59-24.81,45-29.3,17.31-4.24,33.21-.36,47.16,10.22,9.51,7.21,13.2,17.88,12.75,29.6a49.55,49.55,0,0,1-12.22,31c-4.27,5-9.47,6.38-15.2,4.25-5.17-1.92-8.4-6.71-8.52-12.91-.12-6.5,0-13-.17-19.5-.15-7.91-4.22-11.26-11.68-8.48A51.81,51.81,0,0,0,69.51,183c-16.46,13.86-24.69,31.91-25.14,53.37a101.39,101.39,0,0,0,1.12,19.87C49.05,276,62,284.4,81.69,280.94c12.9-2.26,23-10.26,33.5-17.23,5.4-3.57,10.36-7.84,15.42-11.9a53.39,53.39,0,0,0,17.74-25.74c10.57-31.43,28.4-57.95,57.27-75.7,10.91-6.71,22.7-11.07,35.82-11,3.56,0,5.77,1,7.34,4.53,2.8,6.34,8,9.56,15.08,9.52,4.67,0,9.34-.12,14,.09,7.75.36,12,4.36,11.38,12.1-.95,11.91-2.69,23.76-4.31,35.61-2.68,19.58-5.62,39.13-8.25,58.72a24.9,24.9,0,0,0,.71,8.39c1.43,6.62,5.82,9.69,12.09,7.1,6.95-2.87,13.41-7,19.8-11.12,1.33-.85,2-3.73,1.93-5.65-.43-16.87-.06-33.59,5-49.93,9.34-30,28.38-51.93,56.6-65.14,20.21-9.47,40.37-6.74,57.88,7,12.15,9.52,14.44,23.36,11.34,38.07a49.68,49.68,0,0,1-11.29,22.55c-4.05,4.67-9.29,6-14.84,4a13,13,0,0,1-8.6-12.32c-.18-6.83-.06-13.66-.2-20.49-.15-7.35-4.27-11-11-8.27a61.59,61.59,0,0,0-18.38,11.44c-14.84,13.8-22.38,31.26-22.28,51.64,0,7.43.18,15.09,1.91,22.25C362,278.66,375.33,283.8,392,281a53.57,53.57,0,0,0,18-7.07c20.5-12.32,39.48-26.62,55.22-44.89,4.33-5,5.95-9.91,5.57-17-.76-14.38.4-28.9,1.39-43.32.52-7.54,1.12-7.51-6.2-9.43-5.79-1.52-11.61-3-17.39-4.52a23.51,23.51,0,0,1-5.13-1.88,11.33,11.33,0,0,1-6.05-12.12c1-5.22,5.35-6.73,9.71-7.11,8.11-.71,16.28-1.12,24.41-1,5,0,6.82-2,7.86-6.65,7.25-32.62,16.78-64.46,34.1-93.4,3.5-5.84,7.7-11.26,11.77-16.74,6-8,14.49-12.38,23.62-15.76ZM247,173.27a74.83,74.83,0,0,0-8.08,1c-11.29,2.78-20.15,9.39-27.31,18.25-13.47,16.67-20.51,36-22.12,57.23-.67,8.85,0,17.67,4.15,25.77,5.54,10.89,17.55,12.4,24.48,2.44A67.63,67.63,0,0,0,228,257c5-19.11,9-38.49,13.31-57.77C243.16,191,244.93,182.72,247,173.27Zm273.4-38.79c3.64,1.25,5.76-1.29,7.66-4.92,6.54-12.55,13.4-24.93,19.92-37.49,5.7-11,10.27-22.35,11.93-34.75.94-7.08-2-13.34-7.59-15.25-5.3-1.83-11.35,1-14.92,7.18a39.94,39.94,0,0,0-4,8.56Q523.53,92.34,514,127C512.05,133.87,512.45,134.32,520.41,134.48Z"/><path class="cls-1" d="M1087.92,128a9,9,0,0,0-1.36,1.94c-5.34,14.76-16.24,20.62-31.78,17.08a53.85,53.85,0,0,0-5.39-.57c6.44,10.48,8.55,20.6,3.07,31a21.86,21.86,0,0,1-13.14,10.91,26.44,26.44,0,0,1-22.5-2.73c-7.45-4.46-9.84-11.75-12.26-20.43a69.22,69.22,0,0,0-4.37,5.52c-5.74,9.18-14.15,13.05-24.65,11.64-9.59-1.28-16.92-6.46-20.13-15.81-3.41-10-2.17-19.35,5.85-27.08a36.44,36.44,0,0,0,3-3.35,8.34,8.34,0,0,0,.69-2c-19.47-1.26-31.95-9.25-28.85-31.09,1.2-8.43,6.24-14.17,14-17.55,7.53-3.28,15.2-2.25,24.1.46-1.39-3.5-2.22-5.72-3.14-7.9-4.92-11.68-.33-26,10.22-31.78,11.6-6.38,25.84-3.3,33.25,7.48,1.83,2.67,2.74,6,3.92,9.08.68,1.78,1,3.68,2,7.13,10.82-17.21,24.2-21.93,40.62-11.09a18.8,18.8,0,0,1,8.43,18.69c-1,6.81-3.41,13.42-5.28,20.42,9.42.46,16.67,5.8,21,15.16,1,2.22,1.86,4.54,2.78,6.81Zm-86.65-6c.57-10.31,3.93-18.69,12.65-24.07,3.88-2.4,5.33-1.44,5.53,3.09a46.25,46.25,0,0,0,.25,6.47c1,5,6.31,7.1,9.85,3.7,7-6.7,8.94-20.78-2.37-26.85-7.12-3.82-14.37-4-21.51-.19-16.36,8.62-23.1,23-22.89,40.72.16,13.85,7.94,23.18,20.65,25.75,13.72,2.78,24-4.28,33.38-13,2.76-2.57,4.06-6.1,1.16-9.33s-6.26-1.88-9.44.15c-3.49,2.24-6.88,4.8-10.67,6.38-8.42,3.51-13.9.45-15.88-8.36C1001.62,124.87,1001.46,123.22,1001.27,122Z"/><path class="cls-1" d="M813.91,288.49c-4,3.48-7.91,7.09-12.08,10.32-8.63,6.68-17.67,12.41-29.16,12.93-11.29.51-19.31-4.56-24.39-14.16-2.55-4.8-3.95-10.21-5.82-15.35-.55-1.5-1-3.05-1.82-5.81-3.39,3.92-6.12,7-8.72,10.11-9.17,11.05-19.81,20.25-33.09,26-7.43,3.21-15.21,5.07-23.36,3.67-13-2.23-18-12.08-21.11-23.29s-2.46-22.9-.65-34.19c4.86-30.35,10.28-60.62,15.86-90.84,2.06-11.18,8.72-19.85,18.25-25.84,7-4.37,14.84-3.48,22.17-.77,1.84.68,4,4.47,3.66,6.5-4,27.45-8.5,54.83-12.62,82.27-1.57,10.49-2.66,21.07-3.49,31.65-.24,3,.81,6.28,2,9.11,1.85,4.32,5.32,6,10.19,4.9,11.36-2.54,18.71-10.07,22.25-20.32,3.77-10.93,5.9-22.46,8.2-33.84q7-34.46,13.25-69c1-5.55,3.78-8.88,9-10.82a38.83,38.83,0,0,1,24.51-.9c6.8,1.89,8.82,5.75,7.75,12.75-5,32.85-10,65.7-14.84,98.57-.7,4.73,0,9.62,4.61,12.35,4.26,2.49,8.74,1.34,12-1.85,11.63-11.4,23.87-22.35,34.2-34.85,14.94-18.1,28.31-37.48,42.57-56.14a222.94,222.94,0,0,1,17.1-20.19c7-7.2,16-10.69,26.06-10.9,7.32-.16,12.83,3.28,16.15,9.8A16.47,16.47,0,0,1,931,168.66q-8,10.85-16.39,21.45a8,8,0,0,0-1.41,8.29c6.2,19.25,9.15,39,10.59,59.22.89,12.48.28,24.36-6,35.27-13.15,22.89-39.33,36.06-70.66,26.25C837,316,827.11,312.2,821,302.82,818.23,298.58,816.45,293.71,813.91,288.49Zm64.66-64.64-2.85-1c-2.62,3.19-5,6.58-7.9,9.55q-17.16,17.81-34.58,35.36c-2.79,2.82-3.28,5.05.13,7.65,4.5,3.43,8.55,7.53,13.33,10.47,12.94,8,35.53,4.66,37.62-17.17a90.25,90.25,0,0,0-.23-20.78C883,239.8,880.47,231.86,878.57,223.85Z"/><path class="cls-1" d="M602.18,298.83c0-10.16,7.47-17.86,17.43-18,9.79-.16,17.85,8.11,17.81,18.26a17.33,17.33,0,0,1-17.82,17.5C609.49,316.54,602.16,309.07,602.18,298.83Z"/></g></g></svg>