<?xml version="1.0" encoding="utf-8"?>
<!-- Generator: Adobe Illustrator 26.0.3, SVG Export Plug-In . SVG Version: 6.00 Build 0)  -->
<svg version="1.1" id="Layer_1" xmlns="http://www.w3.org/2000/svg" xmlns:xlink="http://www.w3.org/1999/xlink" x="0px" y="0px"
	 viewBox="0 0 309.9 49.4" style="enable-background:new 0 0 309.9 49.4;" xml:space="preserve">
<style type="text/css">
	.st0{fill:#FFFFFF;}
</style>
<g id="Layer_2_00000126296882420736409900000005249687419703568568_">
	<g id="Layer_1-2">
		<g id="upn9wL.tif">
			<path class="st0" d="M131.7,48.4V1h0.7c5.6,0,11.3,0,16.9,0c4.1,0,8.2,0.9,11.9,2.8c4.9,2.5,8.6,7,10.1,12.4
				c1.9,5.8,1.7,12.1-0.3,17.8c-2.7,7.5-8.1,12-15.9,13.6c-2.1,0.4-4.2,0.7-6.3,0.7c-5.5,0.1-11,0-16.5,0L131.7,48.4z M142.2,38.4
				c0.1,0,0.1,0.1,0.2,0.1c3,0,6,0.3,8.9-0.2c4.9-0.9,8.2-3.6,9.6-8.4c0.8-2.9,0.9-5.9,0.4-8.8c-0.9-5.5-5.5-9.7-11.1-10
				c-2.6-0.2-5.2-0.1-7.7-0.1c-0.1,0-0.2,0-0.2,0.1V38.4z"/>
			<path class="st0" d="M273.5,48.3h-10V29.2c0.1-1.5-0.4-3-1.4-4.2c-1.4-1.5-3.6-2-5.5-1.4c-1.9,0.5-3.4,2-3.7,4
				c-0.1,0.5-0.2,1.1-0.2,1.6c0,6.1,0,12.1,0,18.2v0.8h-10.2V15.2h9.7v3.6c2.4-3.1,6.1-4.8,10-4.6c4,0,7.4,1.4,9.5,5.1
				c0.8-0.8,1.4-1.6,2.2-2.4c1.7-1.5,3.8-2.4,6.1-2.6c2.4-0.3,4.8-0.1,7.1,0.8c3.8,1.4,6.4,4.8,6.9,8.8c0.2,1.1,0.2,2.2,0.2,3.3
				c0,6.8,0,13.6,0,20.3v0.8h-9.8c0-0.2,0-0.5,0-0.8c0-6,0-11.9,0-17.9c0-1-0.1-2-0.4-2.9c-0.5-1.8-2.1-3.1-4-3.2
				c-3-0.6-5.8,1.4-6.4,4.3c-0.1,0.5-0.1,1-0.1,1.4L273.5,48.3L273.5,48.3z"/>
			<path class="st0" d="M75,48.3H64.8V29.4c0-1.2-0.2-2.3-0.7-3.4c-0.4-0.9-1.1-1.6-2-2c-3.4-1.5-8.1-0.1-8.2,5
				c-0.1,6.2,0,12.3,0,18.5v0.8H43.8V0h10.1v17.1c0.1,0,0.2-0.1,0.3-0.1c2.8-2.3,6.2-2.9,9.7-2.7c2.6,0.1,5,1.1,7,2.7
				c2.1,1.9,3.5,4.4,3.8,7.2c0.2,1.1,0.3,2.2,0.3,3.3c0,6.7,0,13.3,0,20V48.3z"/>
			<path class="st0" d="M39.7,1v10H25.1v37.3H14.5V11H0V1H39.7z"/>
			<path class="st0" d="M89.7,34.3c0,2.8,2.3,5.4,5.4,6.2s7.2,0.2,8.8-4.1l8.5,2.4c-0.8,2.7-2.3,5.2-4.5,7c-2.7,2.2-6.1,3.4-9.6,3.5
				c-5.1,0.4-10.1-1.4-13.7-5c-2.6-2.6-4.2-6.1-4.7-9.8c-0.6-3.7-0.1-7.5,1.5-10.9c3.1-6.3,8.3-9.5,15.3-9.5
				c3.4-0.1,6.7,0.8,9.6,2.7c3.3,2.2,5.5,5.7,6.2,9.6c0.5,2.4,0.6,4.9,0.4,7.3c0,0.2-0.1,0.4-0.1,0.6L89.7,34.3z M103.1,27.7
				c0-0.2,0-0.3,0-0.5c-0.2-2-1.5-3.7-3.3-4.4c-1.3-0.5-2.6-0.8-4-0.6c-2.4,0.1-4.6,1.6-5.5,3.9c-0.2,0.5-0.4,1.1-0.5,1.7H103.1z"/>
			<path class="st0" d="M204.2,15.1h10.1v0.8c0,5.9,0,11.8,0,17.7c0,0.8,0.1,1.6,0.3,2.5c0.6,2.4,2.9,4,5.4,3.8
				c2.9,0,5.3-2.3,5.3-5.3c0-0.1,0-0.2,0-0.4c0-6.1,0-12.2,0-18.2v-0.8h10.1c0.2,11-0.2,22.1,0.2,33.2H226c-0.1-1-0.2-2-0.3-3.1
				c-0.3,0.3-0.5,0.6-0.8,0.9c-1.5,1.5-3.4,2.5-5.5,2.8c-3,0.6-6,0.2-8.8-1.1c-3.4-1.7-5.8-5.1-6.3-8.9c-0.2-1.1-0.3-2.2-0.2-3.3
				c0-6.5,0-13.1,0-19.6L204.2,15.1z"/>
			<path class="st0" d="M188.4,48.3h-10.1V15.2h9.7v4.2c0.1-0.1,0.2-0.2,0.3-0.2c1.5-2.5,4.1-4.1,7.1-4.2c1.2,0,2.3,0,3.5,0.1
				c0.3,0,0.5,0.2,0.5,0.5c0,3.1,0,6.2,0,9.3c0,0,0,0.1,0,0.1c-1.3-0.1-2.7-0.1-4-0.1c-3.4,0.1-6.2,2.6-6.7,6
				c-0.2,1.1-0.3,2.1-0.3,3.2c0,4.5,0,9,0,13.5L188.4,48.3z"/>
			<path class="st0" d="M304.4,43.2c1.1-0.1,1.1-0.1,1.5,0.8s0.8,2,1.3,3.1L308,45c0.1-0.3,0.3-0.7,0.4-1c0.4-0.9,0.4-0.9,1.4-0.8
				v5.2h-0.7v-4h-0.1c-0.1,0.2-0.2,0.4-0.3,0.6c-0.4,1-0.8,2.1-1.3,3.2c-0.1,0.2-0.3,0.4-0.4,0.4s-0.3-0.2-0.4-0.4
				c-0.5-1.2-1-2.5-1.6-3.9c0,0.2-0.1,0.4-0.1,0.6v3.1c0,0.6,0,0.6-0.7,0.5L304.4,43.2z"/>
			<path class="st0" d="M301.8,48.3H301v-1.7c0-0.7,0-1.4,0-2.1s-0.2-0.8-0.8-0.7c-0.2,0-0.3,0-0.5,0c-0.4,0-0.6-0.1-0.4-0.6h4.1
				c0.1,0.4,0.1,0.6-0.4,0.6s-0.7,0-1.2,0L301.8,48.3z"/>
		</g>
	</g>
</g>
</svg>
