<svg xmlns="http://www.w3.org/2000/svg" viewBox="0 0 2255 2493.8"><defs><style>.cls-1{fill:#fff;}</style></defs><g id="Layer_2" data-name="Layer 2"><g id="Layer_1-2" data-name="Layer 1"><path class="cls-1" d="M2255,.31V473.83c-5,.25-9.95.71-14.93.71q-642.21,0-1284.42,0a492.37,492.37,0,0,0-89.47,7.73c-163,30-299.13,143.82-357.8,299-23.66,62.59-32.23,127.48-30.12,194.05,0,.78.85,1.53,1.53,2.7,3.48-1.81,6.71-3.43,9.87-5.17Q704.81,854.07,950.6,853.72q645.7-.27,1291.42-.07c4.33,0,8.65-.13,13-.2V1329c-2.66-.09-5.31-.25-8-.25q-651.54,0-1303.09,0a436.21,436.21,0,0,0-86.3,8.85,474.68,474.68,0,0,0-355.39,312.2c-14,41.16-22.68,83.49-24,127-.86,28.61-.3,57.26-.31,85.89q-.1,175.77-.19,351.55-.07,101.37-.3,202.74c0,25.63.2,51.25.32,76.88H0v-52c.6-4.52,1.73-9,1.74-13.57q.39-198.29.59-396.56Q2.63,1822,3,1612.2c0-32.3,0-64.6,0-96.9q.21-285.18.42-570.37A933.34,933.34,0,0,1,32.82,711.8C113.86,397.18,349.58,146.57,658.91,46c97.73-31.77,198-46.07,300.76-46Q1601.34.48,2243,.14C2247,.14,2251,.25,2255,.31Zm-118.42,326H1911.74c-.29-20.56-.54-39.92.07-58.86a19.82,19.82,0,0,1,2.47-.64l217.86-.39a15.07,15.07,0,0,0,3-.46,1.87,1.87,0,0,0,.77-.54c.24-.23.44-.5.5-.56V213H1912.45c-1.84-14.29-1.31-51.64.81-59,74.28-.27,148.73.15,223.8-.23,0-10.44,0-19.41,0-28.37s-.07-17.68-.11-26.59H1849.13c-1.9,13.31-1.31,275.55.56,282.61h286.89Zm-505-53.59,6.72-.84c19.58-2.43,38.77-6.23,56.39-15.73s30-23.13,35.79-42.29a94.62,94.62,0,0,0,1.61-48.38c-5.94-26.92-23.48-44.1-47.82-55.11-19.13-8.65-39.51-11.92-60.3-12-60-.24-119.91-.1-179.87,0a68.11,68.11,0,0,0-7.51.81V381.4h63.17V273c13.13,1.44,25.06,2.11,36.75,4.15,35.94,6.25,63.68,26.14,86,54,11.41,14.29,21.78,29.43,32.21,44.47,3.18,4.6,6.42,6.61,12.15,6.51,20.31-.36,40.64-.13,61-.15,2.19,0,4.37-.19,7.89-.35C1707.39,338.78,1678.39,298.62,1631.56,272.71Zm-156.17,959.7v-107c13.62-1.32,25.75.49,37.85,2.77,35.51,6.68,62.87,26.42,84.9,54,11.41,14.29,21.78,29.43,32.19,44.49,3.22,4.65,6.64,6.46,12.27,6.37,20.32-.32,40.64-.11,61-.15,2.14,0,4.29-.27,7.59-.5-28.23-42.88-57.3-83-103.79-108.68,7.68-1.08,13.3-1.74,18.87-2.67,16.85-2.8,33.16-7.26,47.94-16.19,16.72-10.1,28.06-24.41,32.84-43.44a98,98,0,0,0,.34-46.49,71.25,71.25,0,0,0-22-37.23,96.09,96.09,0,0,0-30.56-18.54c-18.9-7.3-38.62-9.92-58.74-9.93q-88-.07-175.91,0c-2.54,0-5.08.44-7.87.69v282.43ZM1116.74,943.32c-15.64-.2-36.76,2.31-57.37,8.25-33.9,9.77-63,27-83.54,56.44-24.79,35.54-29.27,75.27-21.13,116.54,9.68,49.07,39.73,82.29,85.89,99.8,54,20.49,108.92,20.27,163.19.48,33.47-12.21,59.19-34.2,75.36-66.39,11.64-23.16,15.5-48,14.54-73.64-2.16-57.31-29.37-98.35-80.87-123.13C1184.38,948,1153.88,943.34,1116.74,943.32Zm-727.42,647.6L103.88,1754.69c-.54,24-1.07,47.28-1.58,70.23,13.74,10.89,274,170.24,281.53,172.18,0-3.13,0-6.09,0-9,.22-18.3.15-36.62.88-54.91.24-6-1.93-9-6.71-11.84-19.14-11.43-37.95-23.44-57.2-34.69-5.72-3.34-7.41-7.07-7.27-13.53,1-44.92,1.59-89.85,2.23-134.78.16-10.93,0-21.87,0-32.42,4.46-2.65,7.85-4.74,11.31-6.71,18.52-10.53,37-21.15,55.62-31.46,4.57-2.53,6.7-5.4,6.67-10.89-.1-20,.37-39.94.57-59.91A60,60,0,0,0,389.32,1590.92Zm139.31-312.74c-.52,3-.8,4.32-1,5.62-5.92,50-27.17,92.84-61.8,129.07-16.06,16.81-34.65,30.09-57.41,36.64-45.16,13-92.61-16.22-101.25-62.36-3.82-20.45.43-39.92,8.89-58.29,25.46-55.25,66.72-92.87,125.6-110.29,2.11-.62,4.16-1.5,7-2.53l-27.34-49.53c-10.4.73-19.41,4.07-28.32,7.62-22.88,9.08-42.67,23.11-61.23,38.95-33.69,28.74-60.62,62.54-76.83,104.18a165.72,165.72,0,0,0-10.35,82.3c9.8,76.79,102.76,148.62,196.45,105.6a203.7,203.7,0,0,0,62.9-45.11c33.59-35.25,58.47-75.76,72.38-122.59,4.26-14.33,6.53-29.08,5.06-44.88ZM975.84,98.73c-.18,3-.42,5.31-.43,7.58,0,50.6-.26,101.2.06,151.8.35,53.91,29.39,95.81,79.59,115.75,31.58,12.54,64.58,15.49,98.12,13.69,24.06-1.3,47.54-5.76,69.8-15.5,32.37-14.17,55.81-36.93,67.9-70.52,5.35-14.87,7.51-30.34,7.53-46.08q.12-73.9,0-147.81c0-2.89-.37-5.79-.56-8.55-14.37-1.7-55.09-1.18-62.57.86v10.76c0,41.28.11,82.56-.08,123.83a244,244,0,0,1-1.86,28.85c-4.3,34.31-22.12,54.2-56.12,61.31a198.31,198.31,0,0,1-83.28-.51c-29.66-6.43-47.07-25-52.31-54.58a202.69,202.69,0,0,1-2.94-33.73c-.33-41.61-.13-83.22-.13-124.83V98.73ZM389.71,290l-39.55,49.2c3.07,2.57,5.56,4.72,8.12,6.78,33.22,26.68,66.66,53.09,99.54,80.18a190.34,190.34,0,0,1,28,28.25c15.56,19.61,18.37,41.75,7.93,64.73A189.49,189.49,0,0,1,433,594.49c-19.91,14.66-41.92,16.86-64.08,6a201.11,201.11,0,0,1-34.45-21.79c-28.67-22.24-56.7-45.28-85-68-7.24-5.81-14.53-11.55-22.64-18l-39.43,49.15c2.48,2.13,4,3.47,5.5,4.71q58,46.57,116.08,93.07A168.28,168.28,0,0,0,327,652.11c18,10.82,37.37,17.09,58.55,17.69,26.91.77,51.36-7,73.51-21.66,43.84-28.93,75.18-68.19,93.58-117.39,8.29-22.17,10.71-45.21,6.08-68.7-6-30.51-22.86-54.23-46.46-73.57-19.82-16.24-39.93-32.14-59.92-48.18C431.88,323.85,411.37,307.41,389.71,290ZM103.55,2344.16H386.06v-62.27c-36.53-.46-72.32.22-109-.4V2062.07H221.56v218.54c-12.91,1.92-55.34,1.5-63.49-.69V2062.63H103.55ZM277.34,974.89V755.18c-19.18-.21-36.95-.23-55.55,0V974.74c-21.24.47-41.61.5-63.32,0V756.44c-15.24-1.88-47.79-1.37-54.4.61v280.18c12.28,2.16,276.08,1.08,282.78-1.06V974.89Zm392-770.32c24.25,72.45,48.25,144.18,72.45,216.5l60-20.1c-24.25-72.67-48.11-144.18-72.25-216.5l128.1-42.86c-5.91-17.68-11.54-34.55-17.54-52.54l-316,105.43L541.68,247ZM845,941.48l-313.25,113.4,18.95,52,126.62-45.67c26.11,72,51.81,142.84,77.84,214.58l59.5-21.53c-26-71.86-51.73-143-77.68-214.66l126.95-46.1C857.43,975.71,851.34,959,845,941.48Zm1136.15,291.08v-11.68c0-26,.18-51.94-.13-77.9a25.39,25.39,0,0,1,5.94-17.22q66.11-83.33,131.8-167c2.1-2.67,4-5.51,6.89-9.5-24.41,0-46.72.28-69-.17-6.49-.13-10.22,2.21-14,7.15q-42.76,55.93-86,111.5c-2.15,2.79-4.52,5.42-7.25,8.67-2.73-3.3-4.87-5.76-6.87-8.34q-43.38-56.1-86.64-112.29c-3.58-4.68-7.26-6.75-13.24-6.65-20.64.34-41.3.1-61.95.18-2.05,0-4.09.63-7.05,1.12,3.2,4.11,5.62,7.27,8.08,10.39q65.23,82.76,130.57,165.43a22.81,22.81,0,0,1,5.35,15.4c-.28,26.63-.12,53.27-.12,79.9v11Z"/><path class="cls-1" d="M1500.06,219.81V154.64a63.82,63.82,0,0,1,6.91-.71c36.91,0,73.82,0,110.73.29a140.91,140.91,0,0,1,24.79,2.24c21.1,3.93,30.52,19,25.49,39.41-1.89,7.63-5.88,13.73-13.11,16.48-7,2.67-14.55,5.22-22,5.61-22.57,1.19-45.18,1.51-67.78,1.8C1543.86,220,1522.6,219.81,1500.06,219.81Z"/><path class="cls-1" d="M1475.75,1005.34c2.56-.23,4.19-.51,5.82-.51,39.56.16,79.12.11,118.67.72a88.46,88.46,0,0,1,25.4,4.23c13.42,4.29,19.49,14.14,19.23,28.14-.27,14.56-6.12,23.15-19.74,27.88a51.21,51.21,0,0,1-15.51,3.25c-43.2.73-86.41,1.13-129.61,1.58a24.18,24.18,0,0,1-4.26-.83Z"/><path class="cls-1" d="M1122.86,1179.44c-18.84.31-37.52-2.45-55.12-10.37-33.37-15-50.78-40.9-51.08-77.55-.29-35.86,16-62.4,48.59-76.95,38.42-17.13,77.83-16.91,116,.86,31.69,14.74,47.52,41,47.34,75.84-.18,35.08-16.3,61-48.26,76.43C1162.33,1176.41,1143.11,1179.64,1122.86,1179.44Z"/><path class="cls-1" d="M258.18,1848.7l-92.37-57.29,94-54.18C260.17,1774.75,259.43,1810.61,258.18,1848.7Z"/></g></g></svg>