<?xml version="1.0" encoding="utf-8"?>
<!-- Generator: Adobe Illustrator 26.0.3, SVG Export Plug-In . SVG Version: 6.00 Build 0)  -->
<svg version="1.1" id="Layer_1" xmlns="http://www.w3.org/2000/svg" xmlns:xlink="http://www.w3.org/1999/xlink" x="0px" y="0px"
	 viewBox="0 0 133 25" style="enable-background:new 0 0 133 25;" xml:space="preserve">
<style type="text/css">
	.st0{fill:#FFFFFF;}
	.st1{fill-rule:evenodd;clip-rule:evenodd;fill:#FFFFFF;}
</style>
<desc>Created with Sketch.</desc>
<g id="Page-1">
	<g id="logo-prestige-810469c61a4f585bdb66b60cb22fd711beb9cfe987691a32ad576fa82189470c">
		<path id="Fill-1" class="st0" d="M57.7,0.3h1.6v2.4h-1.6V0.3z M57.7,5.7h1.6v14h-1.6V5.7z"/>
		<path id="Fill-2" class="st1" d="M63.1,19.7v-14h1.6v2.1c1.4-1.5,2.5-2.4,4.7-2.4c1.6,0,3,1,3.4,2.5c1.3-1.5,2.6-2.5,4.7-2.5
			c2.5,0,3.7,1.3,3.7,3.8v10.4h-1.6V9.1c0-1.6-0.9-2.3-2.5-2.3C76,6.7,73.9,8,73,9.4v10.3h-1.6V9.1c0-1.6-0.9-2.3-2.5-2.3
			c-1.3,0-3.3,1.3-4.2,2.7v10.3H63.1"/>
		<path id="Fill-3" class="st0" d="M92.9,19.7L92.7,18c-1.7,1.3-3,2-5.2,2c-2.2,0-3.9-1.3-3.9-3.6c0-3.8,3.2-4.5,9.1-5.8v-1
			c0-1.9-0.8-2.8-3.2-2.8c-1.7,0-3.1,0.9-4.1,2.5l-1.1-0.6c1.2-2.3,3-3.2,5.3-3.2c3.2,0,4.7,1.3,4.7,4.4v7.3c0,0.7,0.1,1.6,0.2,2.5
			H92.9z M92.6,11.8c-6.5,1.4-7.4,2.7-7.4,4.5c0,1.5,1.1,2.4,2.5,2.4c1.5,0,3.4-0.9,4.8-2.3V11.8z"/>
		<path id="Fill-4" class="st0" d="M109,6.6c-0.7,0-1.7,0.1-2.3,0.6c0.6,0.8,1,1.6,1,2.9c0,3.4-2.5,4.9-5.5,4.9
			c-0.9,0-1.6-0.2-2.3-0.4c-0.9,0.3-1.3,0.8-1.3,1.3c0,0.8,0.5,1.2,4.4,1.2c4.3,0,6,1.3,6,3.6c0,2-1.6,3.8-6.5,3.8
			c-4.9,0-6.2-1.6-6.2-3.3c0-1.2,0.5-2.2,2.5-3v-0.1c-1-0.2-1.9-0.6-1.9-1.8c0-1.2,1.1-2.1,2.1-2.4c-1.3-0.9-2-2.2-2-3.6
			c0-3.1,2.2-5,5.6-5c1.4,0,2.4,0.4,3.3,1c0.8-0.8,1.9-1.2,3-1.2V6.6z M98,21c0,1.4,1.4,2.3,4.3,2.3c3.5,0,5.1-0.9,5.1-2.4
			c0-1.2-0.9-2.3-5.2-2.3C99,18.6,98,19.8,98,21z M102.4,13.8c2.3,0,3.7-1.1,3.7-3.5c0-2.4-1.4-3.6-3.7-3.6c-2.3,0-3.7,1.4-3.7,3.6
			C98.7,12.7,100.4,13.8,102.4,13.8z"/>
		<path id="Fill-5" class="st0" d="M111.5,12.7c0,3.2,1.3,5.9,4.6,5.9c1.8,0,2.7-0.6,4.1-2.8l1.3,0.7c-1.5,2.5-2.9,3.4-5.6,3.4
			c-3.7,0-6.1-2.3-6.1-7.2c0-4.3,2.2-7.2,5.8-7.2c3.8,0,5.7,3,5.7,7.3H111.5z M119.7,11.4c-0.3-2.9-1.6-4.7-4.1-4.7
			c-2.9,0-4.1,2.9-4.1,4.7H119.7z"/>
		<path id="Fill-6" class="st1" d="M123.7,16.3c1.3,1.9,2.5,2.4,4.4,2.4c1.8,0,3.2-1.2,3.2-2.7c0-4.1-8.4-1.8-8.4-6.7
			c0-2.6,2.1-3.8,4.5-3.8c2.4,0,3.9,0.9,4.9,2.5L131,8.8c-1-1.3-2-2.1-3.7-2.1c-1.6,0-2.8,0.8-2.8,2.4c0,3.4,8.4,1.4,8.4,6.8
			c0,2.5-2.3,3.9-4.9,3.9c-2.2,0-4.1-0.9-5.5-2.8L123.7,16.3"/>
		<path id="Fill-8" class="st0" d="M12.5,7.9c-0.8,0-1.6,0-2.1,0.3c0.4,0.6,0.7,1.4,0.7,2.4c0,2.6-1.7,4.4-5.1,4.4
			c-1.4,0-2.5,0.1-2.5,0.8c0,2.2,8.9-0.8,8.9,4.6c0,1.9-2,4-6.3,4c-3.7,0-6.1-1.1-6.1-3.2c0-1.7,1.3-2.5,2.5-2.5v-0.1
			c-0.6-0.4-2-0.7-2-2.2c0-1.3,1.5-2.3,2.1-2.5c-1.1-0.9-2-2-2-3.6c0-2.4,1.8-4.7,5.3-4.7c1.1,0,2.5,0.5,3.3,1.2
			C10,6.1,11,5.7,12.5,5.7V7.9z M3.1,20.9c0,1,0.9,1.5,3.6,1.5c2.1,0,2.8-1,2.8-1.5c0-0.6-1-1.6-4.1-1.6C3.6,19.3,3.1,20.3,3.1,20.9
			z M6,8.1c-1.4,0-2.3,1-2.3,2.2c0,1.3,1,2.2,2.3,2.2c1.2,0,2.2-1,2.2-2.2C8.2,9.1,7.2,8.1,6,8.1z"/>
		<path id="Fill-9" class="st0" d="M16.1,13.3c0.1,2.8,1.3,3.9,2.8,3.9c1.5,0,2.2-0.7,3-1.6l2.3,1.5c-1.3,1.9-3.1,2.8-5.7,2.8
			c-3.5,0-5.7-2.7-5.7-7s2.2-7,5.9-7c3.5,0,5.5,3,5.5,6.2v1.3H16.1z M21.3,11.1c-0.1-1.9-1-3-2.6-3c-1.6,0-2.6,1.1-2.6,3H21.3z"/>
		<path id="Fill-10" class="st1" d="M44.1,21.8c0.5,0.1,0.9,0.1,1.4,0.1c1.1,0,1.7-0.3,2.1-1.1c0.3-0.7,0.5-1,0.5-1.6
			c0-0.5-0.3-1.1-0.4-1.6L44.1,6h3.3l2.2,8.3h0.1L52,6h3.2L51,19.6c-1.4,3.9-2.6,4.9-5.2,4.9c-0.8,0-1.2-0.1-1.6-0.1V21.8"/>
		<path id="Fill-11" class="st1" d="M27,6V1.9h3.6V6h2.9v2.6h-2.9v7.7c0,0.7,0.4,0.9,1.3,0.9c0.5,0,1.1-0.2,1.6-0.3v2.7
			c-1,0.1-1.8,0.2-2.8,0.2c-2.6,0-3.7-1.2-3.7-3.1V8.6h-2.1V6H27"/>
		<path id="Fill-12" class="st1" d="M36.3,6V1.9h3.6V6h2.9v2.6h-2.9v7.7c0,0.7,0.4,0.9,1.3,0.9c0.5,0,1.1-0.2,1.6-0.3v2.7
			c-1,0.1-1.8,0.2-2.8,0.2c-2.6,0-3.7-1.2-3.7-3.1V8.6h-2.1V6H36.3"/>
	</g>
</g>
</svg>
