<svg xmlns="http://www.w3.org/2000/svg" viewBox="0 0 477.12 94.59"><defs><style>.cls-1{fill:#fff;}</style></defs><g id="Layer_2" data-name="Layer 2"><g id="Layer_2-2" data-name="Layer 2"><path class="cls-1" d="M476.93,84.5a3.71,3.71,0,0,0-3.06-1.31c-1.76,0-3.51,1-3.51,3.08,0,4,5.56,2.26,5.56,5.33a2.18,2.18,0,0,1-2.33,2,2.72,2.72,0,0,1-2.46-1.32l-1,.72a4.1,4.1,0,0,0,3.42,1.61,3.37,3.37,0,0,0,3.57-3.14c0-3.91-5.57-2.36-5.57-5.29a2.06,2.06,0,0,1,2.32-2,2.39,2.39,0,0,1,2.1,1Zm-44,4.39a4.47,4.47,0,1,1-4.46-4.69,4.43,4.43,0,0,1,4.46,4.69m1.19,0a5.66,5.66,0,1,0-5.65,5.7,5.52,5.52,0,0,0,5.65-5.7m-23.82-5.43h-1.1V94.31h1.1Zm-17.72,1h3.63v-1h-8.36v1h3.63v9.84h1.1Zm-16.54-1h-1.1v6.68c0,3.13-2,3.44-2.87,3.44s-2.86-.31-2.86-3.44V83.46h-1.1v6.81c0,1.81.71,4.32,4,4.32s4-2.51,4-4.32Zm-24.61,0h-1.1V94.31h6.16v-1h-5.06ZM335.6,88.89a4.47,4.47,0,1,1-4.46-4.69,4.43,4.43,0,0,1,4.46,4.69m1.2,0a5.66,5.66,0,1,0-5.66,5.7,5.52,5.52,0,0,0,5.66-5.7M312.5,84.5a3.74,3.74,0,0,0-3.06-1.31c-1.77,0-3.51,1-3.51,3.08,0,4,5.56,2.26,5.56,5.33a2.18,2.18,0,0,1-2.33,2,2.73,2.73,0,0,1-2.47-1.32l-1,.72a4.07,4.07,0,0,0,3.41,1.61,3.36,3.36,0,0,0,3.57-3.14c0-3.91-5.56-2.36-5.56-5.29a2.06,2.06,0,0,1,2.32-2,2.39,2.39,0,0,1,2.1,1Zm-44.64-1h-1.1V94.31h6.16v-1h-5.06Zm-18.13,1.29,2.34,5.7h-4.7ZM247,91.46h5.55l1.2,2.85H255l-4.72-10.85h-1.07l-4.72,10.85h1.29Zm-15.07-8h-1.1v6.68c0,3.13-2,3.44-2.87,3.44s-2.86-.31-2.86-3.44V83.46h-1.11v6.81c0,1.81.72,4.32,4,4.32s4-2.51,4-4.32Zm-20.48,1a3.71,3.71,0,0,0-3.06-1.31c-1.76,0-3.51,1-3.51,3.08,0,4,5.56,2.26,5.56,5.33a2.18,2.18,0,0,1-2.33,2,2.73,2.73,0,0,1-2.46-1.32l-1,.72A4.1,4.1,0,0,0,208,94.59a3.36,3.36,0,0,0,3.57-3.14c0-3.91-5.57-2.36-5.57-5.29a2.06,2.06,0,0,1,2.32-2,2.37,2.37,0,0,1,2.1,1Zm-20.34-1H190V94.31h1.1Zm-21.06,0h-1.22l4.12,10.85H174l4.23-10.85H177l-3.56,9.2h0ZM134.55,92a3.47,3.47,0,0,1-3.11,1.63,4.7,4.7,0,0,1,0-9.38,3.6,3.6,0,0,1,2.79,1.42l1-.72a4.72,4.72,0,0,0-3.76-1.71,5.7,5.7,0,0,0,0,11.4,4.78,4.78,0,0,0,4-2Zm-22.27-8.49h-1.1V94.31h1.1Zm-23.36,0H87.24V94.31h1.1V84.93h0l3.92,9.38h.59l3.92-9.38h0v9.38h1.1V83.46H96.25l-3.66,8.83ZM70.21,84.75l2.34,5.7h-4.7Zm-2.78,6.71H73l1.2,2.85h1.28L70.74,83.46H69.67L65,94.31h1.29Zm-22.85-8H43.2V94.31h1.1V85h0l6.47,9.29h1.38V83.46h-1.1v9.2h0Zm-17,6.18,4.06-6.18H30.26L27,88.58l-3.24-5.12H22.41l4.07,6.18v4.67h1.1ZM2.39,84.47H4.54c3.31,0,4.86,2.18,4.86,4.42S7.85,93.3,4.54,93.3H2.39Zm-1.1,9.84h3.6a5.43,5.43,0,1,0,0-10.85H1.29Z"/><path class="cls-1" d="M79.16.18,81.51,0V2.82c0,11.35,0,22.7.09,34.06a18,18,0,0,0,.57,4.62c.87,3.13,2.84,4.57,6.07,4.6,4.18,0,8.37,0,12.56,0,4.66,0,7.13-2.22,7.37-6.91.21-4,.13-7.94.14-11.91q0-12.66,0-25.33c0-.55.06-1.1.1-1.82l2.1-.1c.07.75.16,1.36.16,2q0,18.21,0,36.4a11,11,0,0,1-2.16,7,7.49,7.49,0,0,1-6.06,3c-4.89.05-9.79.24-14.67,0-5.37-.27-8.51-3.82-8.62-9.65-.15-7.8-.06-15.61-.06-23.41,0-5,0-10,0-15.21"/><polygon class="cls-1" points="372.81 46.25 392.03 46.25 392.03 48.59 370.27 48.59 370.27 0.63 391.15 0.63 391.15 2.79 372.77 2.79 372.77 23.33 390.08 23.33 390.08 25.79 372.81 25.79 372.81 46.25"/><path class="cls-1" d="M445.88.79c7.91,0,15.65-.35,23.34.12,4.91.31,7.51,4,7.64,8.94.05,2.05,0,4.11,0,6.17-.07,6.79-6,9.88-11.66,9V23c1.56-.27,3-.42,4.45-.8a5.94,5.94,0,0,0,4.71-6c.05-2,.05-4,0-6-.06-4.46-2.22-6.89-6.72-7.13-4-.21-8.09-.09-12.13-.11-2.33,0-4.66,0-7.26,0V48.47l-2.4.11Z"/><path class="cls-1" d="M310,48.59h-2.42V2.36H293.75c-.14-.84-.23-1.42-.36-2.2h30.46V2.22H310Z"/><path class="cls-1" d="M20.66.16h2.12c.06,1,.17,1.87.17,2.76q0,16.6,0,33.21a27.8,27.8,0,0,1-.43,5.08c-.88,4.53-3.55,7-8.17,7.21s-9.33,0-14.16,0c-.07-.73-.12-1.32-.19-2a6.3,6.3,0,0,1,1.3-.31c4,0,8,0,11.93,0s6.15-1.72,6.91-5.7a21.09,21.09,0,0,0,.37-3.8q0-17.77,0-35.55a8.9,8.9,0,0,1,.13-.9"/><rect class="cls-1" x="236.65" y="0.58" width="2.41" height="47.84"/><path class="cls-1" d="M472.3,48.72h-3l-14.63-25,2.6-.55c5,8.44,9.86,16.8,15,25.55"/><path class="cls-1" d="M195,6.44c-1-3.72-4.7-6-9.33-6-6.53,0-13.06,0-19.59,0a11.77,11.77,0,0,0-1.48.19V2.36h0v46h0v.05H167v-23c1.19-.05,2.09-.13,3-.14,5.25,0,10.51.11,15.76-.07,4.12-.14,7.89-1.49,9.15-5.9A24.29,24.29,0,0,0,195,6.44Zm-1.85,9.71a6,6,0,0,1-4.5,6,15.28,15.28,0,0,1-4,.54c-4.54.06-9.08,0-13.62,0h-4V3h.17c5,0,10.08,0,15.12,0a38.23,38.23,0,0,1,4.67.2c4.11.55,6,2.7,6.11,6.8C193.15,12,193.19,14.09,193.16,16.15Z"/><path class="cls-1" d="M448.55,83.27h-1.41v11h1.12V84.86h0l6.58,9.46h1.4v-11h-1.12v9.36h0Z"/></g></g></svg>