<svg xmlns="http://www.w3.org/2000/svg" viewBox="0 0 662.07 287.44"><defs><style>.cls-1{fill:#fff;}</style></defs><g id="Layer_2" data-name="Layer 2"><g id="Layer_1-2" data-name="Layer 1"><path class="cls-1" d="M192.83,85.87h145c10,25.85,36.74,34.32,55.86,28.19-1-1.89-2.75-3-4.12-4.53s-2.93-3-4.4-4.42-3.05-3.06-4.58-4.58-2.92-3-4.41-4.41-3-2.88-4.52-4.36c.79-2.94,1.53-5.71,2.27-8.48,1.26-4.7,2.54-9.41,3.76-14.13a2.25,2.25,0,0,1,1.77-1.93c7.5-2,15-4,22.64-6.06l22.66,22.68c.56-2.44,1.13-4.4,1.44-6.41,4-25.8-13.8-48.72-37.75-52.37-17.49-2.67-31.91,3.18-43.25,16.72C341,49,334,51.55,326.29,53A79,79,0,0,1,312,54.05H219.91l0-.48c2.88-.52,5.74-1,8.62-1.54l63.52-11c8.42-1.45,16.84-3,25.28-4.31a4.51,4.51,0,0,0,3.5-2.38c10.32-17,25.08-28,44.41-32.52a70.15,70.15,0,1,1-44.5,104,4.91,4.91,0,0,0-4.08-2.64c-20.43-2.73-40.84-5.59-61.26-8.39q-25.41-3.48-50.83-6.9c-3.56-.49-7.12-1-10.68-1.47a7.09,7.09,0,0,1-1.09-.31Z"/><path class="cls-1" d="M141.21,164.83c-1,5.06-1.93,9.84-2.87,14.61-3.53,17.8-7.13,35.58-10.56,53.39-1.25,6.55-1.76,13.17-.3,19.78a26.84,26.84,0,0,0,1.29,4.11,12.74,12.74,0,0,0,9.2,8,25,25,0,0,0,9.51.67c5.78-.77,10-4,13.14-8.73A42.16,42.16,0,0,0,166.34,243c1.75-7.39,3.3-14.82,4.81-22.26q5.61-27.6,11.11-55.23a2.35,2.35,0,0,1,.17-.44c1.71-.5,22.09-.59,24.68-.09-.84,4.22-1.67,8.45-2.52,12.66q-5.68,28.2-11.4,56.4a116.93,116.93,0,0,1-7.6,24.95,56.9,56.9,0,0,1-8.81,14.22c-7.65,8.79-17.39,13.34-28.95,14a63.55,63.55,0,0,1-20.91-2c-13.35-3.74-21.44-12.42-24.37-26a64.76,64.76,0,0,1-.21-26c2.78-14.68,5.73-29.33,8.63-44,1.49-7.52,3-15,4.55-22.56.12-.62.3-1.23.48-1.95Z"/><path class="cls-1" d="M570.21,164.8h28c3.84,14.17,7.13,28.45,10.3,42.67a3.53,3.53,0,0,0,.54,0,.41.41,0,0,0,.23,0,2.55,2.55,0,0,0,.47-.52l25.46-42.11h26.88c-.67,1-1.15,1.8-1.69,2.56Q641,194.66,621.58,221.9a4.88,4.88,0,0,0-.7,5q9.29,27.74,18.38,55.52c.27.81.47,1.64.76,2.65H612l-11.79-45.82c-1.94,2.14-2.93,4.48-4.28,6.56s-2.79,4.48-4.18,6.72-2.68,4.35-4,6.52l-4.12,6.47L579.47,272l-4.26,6.67c-1.37,2.16-2.75,4.31-4.11,6.44H544.26c.67-1,1.15-1.79,1.68-2.53q20.59-28.62,41.23-57.2a4.93,4.93,0,0,0,.82-5q-8.57-26.44-17-53C570.78,166.67,570.55,165.91,570.21,164.8Z"/><path class="cls-1" d="M200.49,264.83l18-14.17c.66.82,1.19,1.5,1.74,2.17,5.34,6.55,12,11,20.39,12.49a24,24,0,0,0,13.67-1.19c4.39-1.86,7.42-4.93,8.23-9.82.7-4.22-.33-7.84-3.85-10.42s-7.19-5.07-10.87-7.47c-3.48-2.26-7.08-4.35-10.61-6.54a46,46,0,0,1-11.7-10.2c-3.58-4.44-5.27-9.58-6-15.18-2.29-19,10.49-33.8,25.66-39.16,16.68-5.89,31.93-3,45.63,8.15,1.91,1.56,3.64,3.35,5.42,5.07.63.6,1.15,1.31,1.92,2.2l-15.83,14.75c-3.06-2.45-5.87-4.81-8.8-7a20.09,20.09,0,0,0-9.46-3.8,21.2,21.2,0,0,0-10.19.75,12.21,12.21,0,0,0-8.5,9.81,9,9,0,0,0,3.84,9.64c3.94,2.74,7.95,5.38,12,8,3.77,2.41,7.69,4.58,11.42,7a67.06,67.06,0,0,1,7.63,5.78,24.4,24.4,0,0,1,8.06,14.88,40.84,40.84,0,0,1-.93,18.52c-3,9.74-9.08,16.94-17.87,21.93a49.8,49.8,0,0,1-21.7,6.22A55.24,55.24,0,0,1,221,282.43C212.55,278.58,206.09,272.43,200.49,264.83Z"/><path class="cls-1" d="M417.77,285.09c8.08-40.25,16.08-80.13,24.08-120,1.73-.51,68.37-.64,71.33-.12-1.31,6.88-2.62,13.76-4,20.84H462.87q-2.88,14.76-5.65,29a3.63,3.63,0,0,0,.24.39.5.5,0,0,0,.21.12,3.42,3.42,0,0,0,.7.12l37.17.08a4,4,0,0,1,.56.18c-1.07,6.92-2.58,13.8-3.91,21H452.88c-3.23,16.22-6.42,32.26-9.62,48.38Z"/><path class="cls-1" d="M359.56,186.07c-6.55,33.13-13.06,66-19.58,99H314.67l19.52-98.84c-1-.06-1.82-.16-2.65-.16H302.66l4-21c1.87-.48,85.86-.59,88.67-.1-1.35,6.88-2.71,13.75-4.11,20.9-5.21.4-10.45.12-15.68.17S365.11,186.07,359.56,186.07Z"/><path class="cls-1" d="M0,269.38,15.1,253.9c.46.6.85,1.07,1.19,1.58A25.21,25.21,0,0,0,22.55,262a18,18,0,0,0,12.9,3.43c4.87-.49,8.45-3.15,11.11-7.14a36.47,36.47,0,0,0,5.15-13.09c2.44-11.82,4.79-23.66,7.16-35.49q4.35-21.75,8.69-43.5a14.78,14.78,0,0,1,.43-1.42H93.12c-.61,3.14-1.16,6.11-1.76,9.07Q84,210.58,76.65,247.24a68,68,0,0,1-5.8,17.47c-5.83,11.51-14.8,19.2-27.6,21.75-10.24,2-20.21,1-29.56-4A35.48,35.48,0,0,1,.83,270.8c-.27-.39-.52-.8-.76-1.21C0,269.46,0,269.29,0,269.38Z"/><path class="cls-1" d="M531.78,285.08h-25.5l24.15-120.27h25.31Z"/><path class="cls-1" d="M313.85,27.9H268.09l-.06-.36,53.28-9.74Z"/></g></g></svg>