<svg xmlns="http://www.w3.org/2000/svg" viewBox="0 0 484.43 112.62"><defs><style>.cls-1{fill:#fff;}</style></defs><g id="Layer_2" data-name="Layer 2"><g id="Layer_1-2" data-name="Layer 1"><g id="dU8YGx.tif"><path class="cls-1" d="M136.85,111.5H115.78v-3.08c0-13.41-.06-26.83,0-40.24,0-6-1.8-10.94-7.45-13.57S97,52.75,91.82,56.4A14.78,14.78,0,0,0,85.32,69q0,19.62,0,39.25v2.61H64.08V1.6H85.24V44.71l.55.27c.52-.55,1.06-1.08,1.54-1.66,8.21-9.79,19.56-13,30.93-8.75a29.13,29.13,0,0,1,18.81,27.51q-.15,23.25-.22,46.49Z"/><path class="cls-1" d="M208.9,85.26,219.76,100a35.7,35.7,0,0,1-13.16,8.62c-10.35,4.1-20.94,5.52-31.76,2.22-21-6.41-32.67-28.29-26.5-49.63,6.77-23.42,33.45-35.35,55.14-24.26,13.1,6.7,20.06,17.86,20.89,32.64.19,3.48,0,7,0,10.72H168.32c2,6.15,5.85,10.32,11.58,12.13,10.31,3.26,19.71,1.19,27.83-6.1Zm-6.67-20c-1-7.13-8.56-13-16.73-13.09s-15.82,5.85-16.93,13.09Z"/><path class="cls-1" d="M333,32.7c21.71-.05,39.57,18,39.58,40s-17.92,39.69-40.06,39.79c-21.61.11-39.72-17.94-39.72-39.56A40.07,40.07,0,0,1,333,32.7ZM333.38,92a19.49,19.49,0,1,0,0-39,19.49,19.49,0,1,0,0,39Z"/><path class="cls-1" d="M409.46,110.87H388.32V55.48H376.66V35.93h11.53c0-3.11.23-5.94,0-8.72A24.54,24.54,0,0,1,412.79,0c4.69.06,9.38,1.14,14,1.9.65.1,1.66,1.05,1.67,1.63.12,5.9.07,11.79.07,18.06a47.44,47.44,0,0,0-4.82-.85,29.39,29.39,0,0,0-7.19-.13,8.39,8.39,0,0,0-7.12,7.12c-.46,2.56-.09,5.27-.09,8.13h16.82V55.33H409.46Z"/><path class="cls-1" d="M482.8,35.84V55.32H466.33c-.28.37-.46.5-.46.63,0,9.24-.15,18.49,0,27.73a8.81,8.81,0,0,0,8,8.27,24.07,24.07,0,0,0,5.23,0,51.28,51.28,0,0,0,5.34-1.2c0,6.26,0,12.32-.05,18.39a1.86,1.86,0,0,1-1,1.34c-9.87,3.21-23.27,3.69-31.91-5.51-5.2-5.52-7.25-12.06-7-19.63.31-9.65.14-19.32.16-29a3.85,3.85,0,0,0-.27-.88H431.47V35.91c2.1,0,4.16,0,6.22,0,6.37,0,9.12-2.72,9.23-9.14.07-4.65,0-9.31,0-14.16h18.73V35.84Z"/><path class="cls-1" d="M51.45,55.37H34.35v2.77c0,7.42.29,14.85-.07,22.25-.43,8.74,5.28,13.24,14.61,11.34,1.28-.26,2.54-.65,4.21-1.09v14.52c0,5.43,0,5.48-5.5,6.49-6.47,1.2-12.92,1.48-19.19-1C18.71,106.79,12.66,96.81,13,86c.27-9.66.13-19.33.15-29a13,13,0,0,0-.24-1.64H0V35.91c2.2,0,4.41,0,6.62,0,5.76-.07,8.61-2.8,8.77-8.56.13-4.83.12-9.66.18-14.48,0-.07.1-.13.27-.33H34.29V35.86H51.45Z"/><path class="cls-1" d="M282.21,110.37H262V1.61h20.23Z"/></g></g></g></svg>