<svg width="191" height="190" viewBox="0 0 191 190" fill="none" xmlns="http://www.w3.org/2000/svg">
<path d="M137.192 157.846L137.461 157.827C137.831 157.459 138.181 157.069 138.507 156.661C139.061 155.947 139.389 155.362 139.47 154.878C139.516 154.669 139.519 154.452 139.477 154.242C139.435 154.031 139.349 153.832 139.226 153.657L139.214 153.64C138.733 152.993 137.97 152.826 136.873 152.993C135.776 153.16 134.491 153.844 132.855 154.809C132.525 155.012 132.216 155.216 131.923 155.44C131.778 155.548 131.636 155.658 131.499 155.77C131.363 155.882 131.222 155.973 131.092 156.087C130.586 156.494 130.128 156.957 129.726 157.467C129.645 157.575 129.567 157.683 129.492 157.791L130.917 157.862L132.159 157.913C132.362 157.913 132.578 157.931 132.786 157.933H133.396C134.223 157.925 135.06 157.912 135.91 157.893C136.339 157.876 136.775 157.878 137.192 157.846Z" fill="white"/>
<path d="M161.927 130.684C161.818 130.554 161.698 130.432 161.569 130.32C161.422 130.198 161.262 130.092 161.093 130.003C160.859 129.877 160.608 129.785 160.348 129.73C160.093 129.672 159.829 129.661 159.57 129.697C159.143 129.754 158.729 129.887 158.349 130.09C157.886 130.327 157.455 130.623 157.069 130.971C156.601 131.39 156.174 131.852 155.793 132.352C155.303 132.928 154.85 133.535 154.437 134.169C154.209 134.515 154.001 134.855 153.808 135.187C153.615 135.519 153.417 135.818 153.25 136.121C152.943 136.674 152.688 137.254 152.489 137.853C152.444 137.99 152.406 138.126 152.371 138.26C152.336 138.395 152.296 138.515 152.267 138.639C152.208 138.876 152.167 139.117 152.143 139.36C152.096 139.79 152.13 140.224 152.243 140.642C152.281 140.816 152.344 140.984 152.43 141.141C152.513 141.297 152.615 141.443 152.731 141.576C152.843 141.708 152.966 141.831 153.098 141.943C153.311 142.121 153.549 142.269 153.804 142.382C154.053 142.489 154.321 142.547 154.592 142.553C155.036 142.563 155.477 142.487 155.892 142.327C156.137 142.238 156.375 142.131 156.605 142.008C156.727 141.943 156.851 141.873 156.975 141.804C157.099 141.735 157.217 141.639 157.341 141.548C157.888 141.133 158.396 140.67 158.86 140.164C159.12 139.887 159.381 139.586 159.648 139.26C159.914 138.934 160.146 138.566 160.399 138.185C160.861 137.494 161.279 136.775 161.651 136.032C161.933 135.405 162.158 134.755 162.322 134.088C162.459 133.556 162.527 133.009 162.526 132.459C162.514 132.013 162.415 131.573 162.233 131.165C162.15 130.993 162.048 130.832 161.927 130.684Z" fill="white"/>
<path d="M158.567 57.6602C158.372 57.3525 158.144 57.0672 157.887 56.8094C157.706 56.6168 157.471 56.4822 157.213 56.4227C157.126 56.4125 157.038 56.4084 156.949 56.4064C156.866 56.4057 156.784 56.4174 156.705 56.441C156.622 56.4666 156.544 56.5036 156.472 56.5509C156.345 56.6297 156.234 56.7328 156.147 56.8542C156.069 56.9638 156.023 57.0926 156.013 57.2267C155.952 57.6233 155.999 58.029 156.149 58.4012C156.39 59.0432 156.687 59.663 157.036 60.2534C157.24 60.6239 157.46 60.9658 157.659 61.2976C157.859 61.6294 158.066 61.9368 158.26 62.2238C158.617 62.7454 159.012 63.2406 159.44 63.7056C159.789 64.0711 160.163 64.4113 160.56 64.7233C160.868 64.9675 161.211 65.1637 161.577 65.3054C162.021 65.4925 162.511 65.5448 162.984 65.4561C161.678 62.7667 160.203 60.1629 158.567 57.6602Z" fill="white"/>
<path d="M74.3292 162.552C74.203 162.283 73.9099 162.035 73.4703 161.738C72.8787 161.387 72.2508 161.101 71.5976 160.885C70.7834 160.616 70.071 160.341 69.3953 160.156C68.7848 159.983 68.1602 159.864 67.5287 159.802C66.4072 159.657 65.5197 159.694 64.8623 159.936C64.3967 160.085 63.9857 160.368 63.6816 160.75L63.9382 160.858L65.0862 161.341L66.2321 161.823L66.5191 161.943L66.8123 162.051L67.3964 162.255L69.729 163.107L72.0963 163.85C72.4416 163.966 72.7986 164.043 73.1609 164.08C73.4255 164.103 73.6913 164.052 73.9282 163.932C73.999 163.883 74.067 163.83 74.1318 163.773C74.1964 163.721 74.2527 163.659 74.2987 163.59C74.3443 163.517 74.3799 163.438 74.4045 163.356C74.4518 163.214 74.4705 163.064 74.4595 162.914C74.4496 162.784 74.4046 162.659 74.3292 162.552Z" fill="white"/>
<path d="M31.5332 133.532C30.9001 134.116 30.6762 134.985 30.8716 136.162C30.9289 136.485 31.0092 136.804 31.1119 137.117C31.2425 137.48 31.3968 137.834 31.5739 138.177C32.015 139.039 32.5184 139.868 33.0801 140.656C33.5274 141.228 34.0094 141.772 34.5233 142.285C34.7634 142.523 35.0016 142.743 35.2418 142.946C35.4728 143.149 35.7199 143.333 35.9807 143.496C36.974 144.138 37.8594 144.426 38.6369 144.361C38.8306 144.33 39.0223 144.288 39.211 144.235L39.2883 144.206C36.3916 140.885 33.7963 137.313 31.5332 133.532Z" fill="white"/>
<path d="M142.601 160.39C142.404 160.127 142.111 159.953 141.786 159.906C141.192 159.828 140.591 159.811 139.993 159.855C139.586 159.869 139.041 159.895 138.375 159.932H137.88C137.027 160.709 136.222 161.537 135.468 162.411C134.815 163.15 134.389 163.757 134.219 164.257C134.048 164.758 134.05 165.18 134.237 165.526L134.247 165.544C134.346 165.707 134.482 165.845 134.645 165.945C134.807 166.046 134.991 166.106 135.181 166.122C135.782 166.18 136.387 166.103 136.954 165.898C137.36 165.769 137.752 165.603 138.127 165.401C138.549 165.187 139.003 164.931 139.488 164.632C139.974 164.333 140.396 164.048 140.754 163.775C141.083 163.51 141.394 163.224 141.685 162.918C142.112 162.501 142.452 162.003 142.684 161.453C142.831 161.029 142.808 160.687 142.619 160.423L142.601 160.39Z" fill="white"/>
<path d="M168.972 100.262L168.992 97.7751C169.019 96.9466 168.968 96.1202 168.935 95.2918L168.884 94.0543C168.866 93.6472 168.86 93.2279 168.811 92.8167C168.783 92.452 168.715 92.0916 168.608 91.742C168.537 91.4869 168.396 91.257 168.201 91.0784C168.129 91.0267 168.055 90.9791 167.979 90.9359C167.908 90.8939 167.831 90.8636 167.751 90.8464C167.667 90.8292 167.581 90.8237 167.496 90.8301C167.346 90.8364 167.199 90.8731 167.063 90.938C166.94 90.996 166.835 91.086 166.759 91.1985C166.556 91.4122 166.405 91.7766 166.316 92.2895C166.267 92.5864 166.239 92.8863 166.232 93.1871C166.216 93.5291 166.192 93.9138 166.194 94.3413C166.189 95.1153 166.232 95.8888 166.322 96.6576C166.371 97.2874 166.47 97.9123 166.619 98.5262C166.9 99.6233 167.295 100.444 167.724 100.969C168.018 101.351 168.42 101.635 168.878 101.783C168.925 101.274 168.956 100.769 168.972 100.262Z" fill="white"/>
<path d="M188.502 73.6406C176.707 22.5281 125.708 -9.34323 74.5977 2.45432C23.4872 14.2519 -8.39229 65.2484 3.4134 116.359C15.2191 167.469 66.2034 199.343 117.316 187.537C168.428 175.731 200.3 124.753 188.502 73.6406ZM25.8524 131.244C25.2811 130.127 24.7383 128.997 24.224 127.853L22.5794 128.606L20.3505 125.981L22.962 124.914C21.351 120.963 20.0511 116.892 19.0743 112.738L20.9388 112.306C21.8928 116.36 23.1614 120.333 24.7329 124.189L28.1524 122.793C28.5478 122.639 28.9009 122.394 29.1824 122.077C29.3114 121.924 29.4208 121.756 29.5081 121.576C29.6036 121.381 29.6785 121.176 29.7319 120.965C29.9579 120.098 29.8215 119.007 29.3248 117.66C28.8852 116.235 28.3071 115.286 27.5723 114.775C27.3958 114.653 27.2076 114.548 27.0106 114.462C26.8151 114.379 26.6099 114.322 26.3999 114.291C25.9371 114.227 25.466 114.263 25.0178 114.395L24.6453 114.496L23.9024 111.612L24.3767 111.502C25.3197 111.261 26.314 111.313 27.2263 111.653C28.1439 112.036 28.9219 112.691 29.4551 113.53C29.5325 113.646 29.6098 113.764 29.6831 113.888C29.7564 114.012 29.8439 114.136 29.9212 114.266C30.0787 114.524 30.228 114.801 30.3691 115.097C30.674 115.739 30.9305 116.403 31.1365 117.084C31.3878 117.761 31.5918 118.454 31.7471 119.16C31.8163 119.481 31.8713 119.793 31.9079 120.092C31.9262 120.243 31.9384 120.389 31.9507 120.534C31.9629 120.678 31.9812 120.815 31.9893 120.941C32.0585 122.026 31.8658 122.949 31.4112 123.709C30.9217 124.498 30.2011 125.118 29.3473 125.484L25.9379 127.041C26.444 128.154 26.9753 129.256 27.5317 130.349L25.8524 131.244ZM40.695 146.75C40.4203 146.841 40.1362 146.901 39.8482 146.93C38.9611 147.011 38.0673 146.875 37.2448 146.533C36.1966 146.083 35.2217 145.478 34.3525 144.739C34.1028 144.534 33.865 144.314 33.64 144.082C33.408 143.848 33.176 143.606 32.948 143.353C32.49 142.846 32.0361 142.301 31.5924 141.725C30.3182 139.893 29.4083 138.21 29.0236 136.652C28.8306 135.962 28.7139 135.253 28.6755 134.538C28.6583 133.939 28.7423 133.342 28.9239 132.771C29.0803 132.268 29.3348 131.8 29.6726 131.396C30.0104 130.991 30.4249 130.657 30.8922 130.414L31.1975 130.249L31.5008 130.084L32.5409 131.975L33.6726 133.807C34.4013 135.049 35.2461 136.215 36.0562 137.404C36.451 138.014 36.9008 138.568 37.3344 139.142L38.6432 140.858L40.0335 142.509L40.6278 143.215C40.6922 143.137 40.7527 143.056 40.809 142.973C40.9711 142.728 41.0902 142.457 41.1611 142.173C41.3715 141.395 41.273 140.491 40.8659 139.459C40.7601 139.207 40.6624 138.934 40.5342 138.664C40.406 138.393 40.2695 138.12 40.1128 137.849C39.7732 137.26 39.393 136.696 38.975 136.16C38.4484 135.371 37.8523 134.63 37.194 133.947C37.0535 133.803 36.909 133.671 36.7746 133.54C36.6403 133.41 36.5141 133.288 36.3839 133.176C36.1474 132.967 35.8934 132.778 35.6246 132.612C35.1713 132.327 34.6699 132.126 34.1448 132.02H34.1285L33.7214 131.377L33.3571 130.715L32.6284 129.39H32.6447C33.4954 129.318 34.3487 129.496 35.0995 129.903C35.3132 130.009 35.5188 130.133 35.7345 130.265C35.9503 130.398 36.1762 130.54 36.3981 130.701C36.8691 131.047 37.3127 131.429 37.7252 131.843C37.945 132.063 38.1648 132.299 38.3826 132.547C38.6004 132.795 38.8427 133.038 39.0727 133.304C39.5536 133.872 40.0048 134.464 40.4243 135.079C40.8314 135.618 41.1957 136.14 41.5193 136.665C41.6822 136.925 41.8348 137.186 41.9773 137.446C42.1239 137.703 42.248 137.969 42.3844 138.214C42.8887 139.115 43.2512 140.088 43.4592 141.1C43.6642 141.927 43.6642 142.792 43.4592 143.62C43.3699 144.032 43.2167 144.428 43.0052 144.792C42.7936 145.169 42.5275 145.512 42.2154 145.81C41.9914 146.026 41.7467 146.219 41.4847 146.386C41.2378 146.542 40.9726 146.667 40.695 146.759V146.75ZM53.8929 161.752L51.2468 160.003C52.1302 159.091 53.0054 158.173 53.8725 157.249L53.5856 157.06C53.1382 157.367 52.6608 157.627 52.1608 157.838C51.7272 158.018 51.2722 158.143 50.8071 158.208C49.8862 158.322 48.9513 158.222 48.0755 157.915C47.8331 157.835 47.5976 157.736 47.3713 157.618C47.1325 157.5 46.8903 157.364 46.6447 157.211C46.1097 156.879 45.5964 156.513 45.1078 156.116C44.5461 155.666 44.0338 155.159 43.5792 154.601C43.1864 154.138 42.8451 153.634 42.5615 153.097C42.3164 152.64 42.1499 152.146 42.0689 151.634C41.9917 151.175 41.9951 150.707 42.0791 150.249C42.248 149.36 42.7325 148.527 43.5161 147.738L43.6871 147.565L43.8743 147.377L44.9674 148.446L45.5149 148.981C45.7022 149.154 45.8956 149.321 46.0849 149.49L45.9546 149.633L45.8386 149.761C45.1242 150.542 44.8636 151.377 45.0753 152.283C45.2243 152.821 45.4813 153.323 45.8305 153.759C46.0495 154.045 46.2934 154.312 46.5592 154.556C46.8428 154.828 47.1624 155.107 47.5179 155.393C47.9459 155.74 48.4013 156.052 48.8796 156.325C49.3122 156.547 49.7673 156.721 50.2372 156.844C51.0297 157.076 51.8752 157.049 52.6513 156.767C53.4023 156.464 54.0419 155.938 54.4832 155.259L56.8016 151.888L59.1424 153.431L53.8929 161.752ZM77.3354 164.099C77.2513 164.43 77.1048 164.742 76.9038 165.019C76.706 165.286 76.4499 165.505 76.1548 165.658C75.6318 165.916 75.0523 166.04 74.4694 166.016C74.0903 166.015 73.7118 165.984 73.3377 165.922C73.1341 165.89 72.9306 165.851 72.7027 165.804C72.4747 165.758 72.265 165.68 72.035 165.601L69.4988 164.787C69.2851 164.722 69.0775 164.646 68.8699 164.565L68.2449 164.331L66.9972 163.863C66.5901 163.704 66.1607 163.555 65.7475 163.388L64.5262 162.861L63.305 162.332L62.9609 162.183L62.8835 162.342L62.8062 162.497C62.781 162.549 62.7618 162.603 62.7492 162.66C62.6753 162.894 62.6484 163.14 62.6701 163.385C62.6917 163.629 62.7615 163.867 62.8754 164.084C63.1115 164.569 63.581 165.063 64.2839 165.566C64.461 165.688 64.6503 165.823 64.86 165.943C65.0696 166.063 65.2977 166.183 65.5399 166.303C66.0243 166.545 66.5719 166.792 67.1683 167.042C67.5754 167.205 67.9498 167.364 68.3162 167.48C68.6826 167.596 69.0245 167.683 69.3462 167.771C69.8888 167.914 70.4434 168.006 71.003 168.048C71.9231 168.109 72.5622 167.982 72.8981 167.763C73.2038 167.576 73.4452 167.3 73.5901 166.973L73.5779 167.011L75.0516 167.459L75.7884 167.683C76.0347 167.752 76.2831 167.811 76.5314 167.874C76.5317 167.868 76.5317 167.861 76.5314 167.854V167.874C76.3097 168.447 75.9478 168.954 75.479 169.35C74.9559 169.81 73.9666 170.073 72.4807 170.154C72.0736 170.174 71.6656 170.166 71.2595 170.132C70.7805 170.073 70.3049 169.988 69.8346 169.879C69.3258 169.765 68.7843 169.623 68.2063 169.45C67.9193 169.36 67.6181 169.277 67.3168 169.161C67.0156 169.045 66.7062 168.923 66.3927 168.792C65.4851 168.432 64.6013 168.013 63.7466 167.541C63.0634 167.135 62.414 166.675 61.8048 166.165C60.7179 165.267 60.097 164.286 59.8609 163.38C59.6303 162.469 59.767 161.504 60.2415 160.693L62.9752 155.668L64.1965 156.311L64.8071 156.633L65.1103 156.793C65.2121 156.844 65.3139 156.891 65.4197 156.94C64.7887 157.787 64.1537 158.623 63.5146 159.448C63.6123 159.499 63.7181 159.553 63.8077 159.6C64.3637 158.968 65.126 158.553 65.9591 158.43C66.4482 158.339 66.9457 158.301 67.443 158.316C67.7076 158.316 67.9722 158.351 68.2572 158.367C68.5421 158.383 68.8312 158.42 69.1325 158.465C69.7482 158.559 70.3568 158.695 70.9541 158.872L71.4203 159.012C71.577 159.055 71.7358 159.098 71.8966 159.144C72.2162 159.24 72.5378 159.348 72.8635 159.46C73.3924 159.648 73.9109 159.864 74.4165 160.107C74.8385 160.29 75.2467 160.504 75.6378 160.746C76.2505 161.101 76.7583 161.611 77.1094 162.226C77.2752 162.507 77.3793 162.82 77.4148 163.144C77.4432 163.465 77.4142 163.788 77.3293 164.099H77.3354ZM82.308 177.207C82.0292 177.162 81.7503 177.13 81.4735 177.073L80.6451 176.908L78.9861 176.576L81.8969 162.629L83.2708 162.904L83.9568 163.042C84.1847 163.091 84.4167 163.116 84.6467 163.152L82.308 177.207ZM114.713 171.125C114.618 171.799 114.402 172.45 114.075 173.047C113.703 173.691 113.231 174.272 112.677 174.769C112.033 175.353 111.33 175.87 110.579 176.309C109.697 176.791 108.775 177.196 107.825 177.521C107.314 177.698 106.784 177.877 106.235 178.025C105.685 178.174 105.109 178.28 104.519 178.392C103.929 178.504 103.32 178.595 102.687 178.689L102.215 178.752C102.056 178.77 101.895 178.778 101.734 178.791C101.41 178.815 101.082 178.835 100.751 178.852C100.08 178.886 99.4283 178.903 98.7932 178.903C98.4777 178.903 98.1643 178.903 97.857 178.886C97.5496 178.87 97.2462 178.837 96.9491 178.807C95.8281 178.703 94.7165 178.516 93.6231 178.247C92.6909 177.985 91.7826 177.645 90.9079 177.229C90.5331 177.046 90.1689 176.843 89.8169 176.619C89.4989 176.402 89.1955 176.164 88.909 175.906C87.8139 174.919 87.2481 173.871 87.1646 172.735L88.8439 172.904L89.6825 172.988L90.1038 173.028L90.5252 173.049V173.028C90.8856 173.861 91.4839 174.569 92.2451 175.064C92.7102 175.386 93.2075 175.659 93.729 175.878C94.3529 176.117 94.9956 176.303 95.6505 176.436C96.4152 176.598 97.1896 176.712 97.9689 176.776C98.7993 176.812 99.6861 176.807 100.629 176.759C101.132 176.731 101.622 176.702 102.097 176.651C102.571 176.601 103.029 176.511 103.475 176.43C104.319 176.276 105.155 176.079 105.978 175.839C107.322 175.415 108.581 174.758 109.697 173.899C110.627 173.11 111.153 172.196 111.301 171.217C111.357 170.959 111.383 170.695 111.378 170.431C111.375 170.157 111.345 169.885 111.289 169.617C111.233 169.349 111.154 169.087 111.051 168.833C110.954 168.589 110.829 168.357 110.68 168.141C110.422 167.713 110.091 167.333 109.701 167.02C109.502 166.859 109.289 166.714 109.066 166.588C108.838 166.458 108.596 166.35 108.336 166.23C107.17 165.751 105.93 165.476 104.672 165.416C103.936 165.335 103.197 165.296 102.457 165.3C102.07 165.3 101.677 165.314 101.274 165.336C100.871 165.359 100.46 165.351 100.035 165.375C99.2943 165.409 98.5564 165.484 97.8244 165.601C97.184 165.678 96.5491 165.795 95.9233 165.951C95.3714 166.093 94.8306 166.274 94.305 166.494C93.8389 166.676 93.3877 166.894 92.9556 167.146C92.1737 167.607 91.5173 168.254 91.0442 169.029V169.014C90.7776 168.996 90.5089 168.996 90.2402 168.965L89.4403 168.886L87.8444 168.727C87.8452 168.733 87.8452 168.74 87.8444 168.746V168.725C88.3112 167.578 89.1154 166.599 90.1506 165.918C90.735 165.518 91.3543 165.17 92.0009 164.88C92.7303 164.567 93.4846 164.316 94.2561 164.129C95.1222 163.878 96.0071 163.697 96.9022 163.588C97.1363 163.557 97.3745 163.533 97.6167 163.508C97.859 163.484 98.1052 163.441 98.3556 163.413C98.8563 163.358 99.3733 163.315 99.9046 163.289C100.979 163.262 101.997 163.181 102.974 163.189C103.463 163.189 103.938 163.205 104.399 163.238C104.865 163.252 105.319 163.266 105.765 163.303C106.611 163.369 107.45 163.5 108.276 163.694C109.031 163.839 109.769 164.06 110.479 164.353C111.129 164.623 111.741 164.978 112.299 165.407C112.822 165.801 113.278 166.277 113.65 166.816C113.869 167.112 114.055 167.43 114.204 167.767C114.362 168.122 114.488 168.49 114.58 168.868C114.646 169.122 114.695 169.379 114.729 169.639C114.763 169.889 114.78 170.14 114.782 170.392C114.783 170.639 114.758 170.884 114.706 171.125H114.713ZM176.3 72.9038L162.558 76.6735C162.322 75.7677 162.039 74.8782 161.768 73.9826L175.345 69.6654C175.669 70.7421 176.007 71.8148 176.294 72.9038H176.3ZM166.122 57.5482C167.14 59.429 167.706 61.1103 167.938 62.5046C168.041 63.1328 168.068 63.771 168.019 64.4057C167.984 64.9203 167.852 65.4236 167.631 65.8896C167.215 66.7362 166.484 67.3865 165.595 67.7011L160.266 69.7814L159.759 68.5072L159.218 67.2493C160.24 67.0104 161.264 66.7797 162.29 66.5572L162.159 66.2559C161.374 66.4005 160.594 66.2213 159.759 65.7654C159.326 65.5213 158.92 65.2313 158.548 64.9003C158.117 64.5342 157.717 64.1325 157.354 63.6994C156.945 63.2294 156.563 62.7374 156.208 62.2257C155.845 61.6985 155.473 61.1469 155.137 60.5424C154.601 59.6705 154.163 58.7421 153.83 57.7742C153.592 56.9702 153.515 56.2883 153.643 55.7041C153.693 55.3796 153.817 55.0706 154.003 54.8004C154.195 54.5324 154.433 54.3003 154.705 54.1144C154.981 53.9156 155.293 53.7718 155.623 53.691C155.947 53.6196 156.281 53.6196 156.604 53.691C157.177 53.8196 157.707 54.0945 158.141 54.4889C158.763 55.0343 159.299 55.6704 159.731 56.3758C160.71 57.8556 161.608 59.3903 162.481 60.9413C162.898 61.727 163.336 62.5025 163.725 63.3025C163.928 63.7096 164.132 64.0963 164.323 64.4973L164.482 64.8372L164.643 64.766L164.801 64.6968C164.855 64.6735 164.906 64.6434 164.952 64.6072C165.162 64.4756 165.344 64.3037 165.487 64.1014C165.63 63.8992 165.732 63.6705 165.787 63.4287C165.917 62.9056 165.876 62.2237 165.658 61.3932C165.344 60.3533 164.92 59.3496 164.394 58.3991C164.041 57.7186 163.64 57.0636 163.195 56.4389C162.879 55.9744 162.513 55.5463 162.102 55.1627C161.817 54.8963 161.509 54.6552 161.182 54.4421C160.965 54.3013 160.722 54.2058 160.468 54.1612C160.115 54.1071 159.754 54.1625 159.434 54.32L159.468 54.2976C158.925 53.4264 158.337 52.5858 157.761 51.737L157.742 51.7472L157.759 51.7349C158.292 51.4413 158.892 51.2892 159.501 51.2932C160.189 51.281 161.156 51.6881 162.328 52.5959C163.501 53.5038 164.826 55.1301 166.118 57.5482H166.122ZM136.405 21.9459L140.769 24.7549C141.636 29.7389 142.008 34.7966 141.88 39.8539L141.426 40.9063L141.656 41.1098L142.629 40.4992C147.592 39.5112 152.641 39.025 157.702 39.0479L158.62 40.0656C158.927 40.4055 159.216 40.7597 159.515 41.1078C159.814 41.4558 160.114 41.8019 160.399 42.1601L161.26 43.2308C157.693 46.3776 154.101 49.4905 150.482 52.5695C149.881 51.8204 149.291 51.0632 148.662 50.3305C151.746 47.4415 154.807 44.524 157.844 41.578L157.586 41.2767L155.957 41.9342C151.202 41.9361 146.457 42.3969 141.79 43.3102C140.954 42.5774 140.109 41.8548 139.24 41.1607C139.346 36.3966 138.987 31.6335 138.169 26.9389L138.562 25.2434L138.245 25.0398L131.11 35.6812L128.582 33.89C131.128 29.8815 133.737 25.9001 136.409 21.9459H136.405ZM145.643 160.535C145.542 160.979 145.374 161.406 145.147 161.801C145.016 162.039 144.871 162.27 144.711 162.491C144.539 162.719 144.344 162.952 144.127 163.191C143.644 163.72 143.123 164.215 142.57 164.671C142.265 164.919 141.947 165.19 141.589 165.432C141.231 165.674 140.852 165.922 140.449 166.169C139.709 166.632 138.946 167.058 138.163 167.443C137.503 167.737 136.822 167.984 136.128 168.184C135.573 168.343 135.005 168.45 134.43 168.503C133.975 168.539 133.518 168.498 133.077 168.383C132.727 168.305 132.4 168.15 132.118 167.929C131.837 167.708 131.608 167.427 131.448 167.107L131.438 167.089C131.187 166.535 131.156 165.907 131.352 165.332C131.464 164.963 131.623 164.611 131.827 164.284C132.073 163.858 132.348 163.45 132.651 163.063C133.022 162.594 133.424 162.151 133.854 161.736C134.088 161.506 134.343 161.275 134.607 161.033C134.872 160.791 135.143 160.526 135.436 160.268L135.261 159.979L134.186 160.001C133.596 160.001 132.993 159.977 132.407 159.963L130.654 159.897L129.789 159.857C129.502 159.843 129.207 159.81 128.918 159.786L128.511 159.745C128.42 160.029 128.352 160.319 128.307 160.614C128.146 161.84 128.359 163.086 128.918 164.188L129.048 164.463L128.358 164.801L128.012 164.97L127.658 165.12L126.244 165.731L126.123 165.45C125.478 164.007 125.312 162.394 125.651 160.85C125.76 160.393 125.899 159.943 126.068 159.505L125.507 159.446C124.374 159.275 123.262 159.094 122.173 158.904L123.85 158.188L124.688 157.831C124.965 157.703 125.236 157.565 125.503 157.424C126.024 157.485 126.553 157.54 127.084 157.597C127.306 157.28 127.548 156.976 127.807 156.688C128.364 156.02 128.984 155.407 129.657 154.856C129.83 154.715 130.009 154.577 130.192 154.449C130.376 154.32 130.565 154.186 130.748 154.041C131.123 153.763 131.515 153.496 131.933 153.239C132.35 152.983 132.718 152.765 133.097 152.558L133.38 152.405L133.649 152.246C133.826 152.142 134.003 152.043 134.176 151.949C134.809 151.598 135.468 151.297 136.148 151.047C136.464 150.939 136.749 150.823 137.032 150.736C137.299 150.653 137.571 150.585 137.846 150.532C138.323 150.43 138.812 150.397 139.299 150.435C139.718 150.468 140.126 150.582 140.502 150.77C140.862 150.953 141.179 151.211 141.43 151.528C141.972 152.199 142.114 153.034 141.837 154.05C141.666 154.622 141.403 155.164 141.06 155.654C140.857 155.952 140.637 156.239 140.402 156.513C140.142 156.791 139.852 157.075 139.533 157.365L139.726 157.642C140.691 157.575 141.495 157.536 142.094 157.502C142.757 157.449 143.425 157.506 144.07 157.671C144.516 157.81 144.907 158.084 145.192 158.454L145.204 158.469C145.432 158.756 145.59 159.091 145.667 159.45C145.744 159.808 145.737 160.179 145.648 160.535H145.643ZM164.852 133.088C164.784 133.503 164.683 133.911 164.549 134.31C164.413 134.726 164.254 135.155 164.071 135.596C163.887 136.038 163.676 136.488 163.44 136.95C163.203 137.412 162.906 137.86 162.601 138.33C162.169 138.987 161.736 139.586 161.306 140.125C160.889 140.618 160.437 141.082 159.955 141.513C159.057 142.313 158.184 142.887 157.266 143.176C156.394 143.475 155.456 143.527 154.557 143.327L154.339 143.598C155.199 144.086 156.064 144.57 156.932 145.049L160.348 147.856L159.812 148.517L159.546 148.849L159.263 149.167L158.135 150.441L147.5 140.966L148.436 139.911L148.67 139.649L148.892 139.374L149.334 138.822C149.985 139.56 150.632 140.307 151.276 141.061L151.479 140.805C151.106 140.003 150.928 139.124 150.958 138.24C151.009 137.283 151.229 136.342 151.607 135.462C151.831 134.949 152.083 134.45 152.363 133.966C152.659 133.401 152.984 132.852 153.338 132.321C153.6 131.914 153.879 131.543 154.14 131.181C154.4 130.819 154.652 130.471 154.917 130.151C155.182 129.832 155.452 129.541 155.731 129.264C156.01 128.987 156.293 128.745 156.56 128.505C157.645 127.562 158.776 127 159.926 126.813C160.216 126.762 160.51 126.746 160.804 126.764C161.1 126.786 161.393 126.833 161.681 126.905C161.973 126.978 162.256 127.08 162.528 127.21C162.809 127.344 163.075 127.509 163.32 127.703C163.556 127.886 163.775 128.09 163.975 128.313C164.177 128.543 164.347 128.798 164.482 129.072C164.997 130.137 165.119 131.476 164.856 133.088H164.852ZM172.994 112.135C172.884 112.654 172.742 113.163 172.615 113.678C171.455 113.177 170.292 112.687 169.125 112.207L169.041 112.54C169.883 113.106 170.588 113.853 171.103 114.726C171.325 115.123 171.497 115.546 171.616 115.984C171.724 116.441 171.781 116.909 171.785 117.379C171.789 117.913 171.745 118.446 171.653 118.972C171.604 119.257 171.543 119.555 171.47 119.86C171.396 120.165 171.282 120.471 171.168 120.794C170.635 122.26 170.039 123.44 169.245 124.242C168.451 125.044 167.649 125.547 166.768 125.708C165.886 125.869 164.923 125.708 163.918 125.254L163.694 125.156L163.452 125.048C163.566 124.818 163.655 124.582 163.759 124.346L164.05 123.64L164.634 122.215L164.814 122.286L164.974 122.351C165.417 122.538 165.895 122.625 166.375 122.606C166.82 122.58 167.25 122.432 167.616 122.176C168.06 121.843 168.429 121.42 168.701 120.937C168.888 120.627 169.056 120.307 169.204 119.978C169.385 119.594 169.537 119.198 169.658 118.791C169.983 117.808 170.118 116.772 170.055 115.738C169.984 114.908 169.649 114.123 169.098 113.499C168.547 112.91 167.83 112.502 167.042 112.331L163.067 111.358C163.177 110.904 163.305 110.454 163.403 109.998L163.676 108.626L173.312 110.572L172.994 112.135ZM175.451 97.1624C175.433 97.4189 175.412 97.6672 175.388 97.9095C175.342 98.3939 175.284 98.8539 175.215 99.2895C175.11 100.077 174.919 100.85 174.645 101.596C174.139 102.927 173.507 103.865 172.75 104.409C171.973 104.947 171.018 105.161 170.085 105.007L164.417 104.24L164.52 103.564L164.588 102.882L164.722 101.518C165.729 101.805 166.736 102.1 167.743 102.404L167.775 102.076C166.988 101.788 166.332 101.223 165.931 100.486C165.382 99.5704 165.004 98.562 164.816 97.5105C164.755 97.2154 164.72 96.9141 164.663 96.6068C164.606 96.2994 164.561 95.9859 164.524 95.6684C164.45 95.0069 164.414 94.3415 164.417 93.6757C164.417 93.3704 164.406 93.0773 164.417 92.7984C164.427 92.5195 164.417 92.2509 164.439 91.9964C164.462 91.5329 164.524 91.072 164.622 90.6184C164.826 89.8042 165.058 89.1671 165.457 88.7173C165.657 88.4603 165.912 88.2516 166.204 88.1067C166.501 87.9656 166.821 87.8781 167.148 87.8482C167.489 87.8081 167.835 87.8336 168.166 87.9235C168.486 88.0163 168.782 88.1774 169.033 88.3957C169.24 88.5672 169.42 88.7681 169.568 88.9921C169.75 89.2539 169.896 89.5386 170.002 89.8388C170.264 90.6213 170.421 91.4352 170.468 92.259C170.697 95.4888 170.714 98.7301 170.519 101.962L170.69 101.978L170.861 101.995C170.919 102.001 170.978 102.001 171.036 101.995C171.538 101.966 172.008 101.74 172.345 101.368C172.556 101.147 172.728 100.891 172.854 100.613C173.006 100.261 173.125 99.8969 173.21 99.5236C173.318 99.0494 173.401 98.5697 173.458 98.0865C173.538 97.4922 173.575 96.8929 173.57 96.2933C173.575 95.5268 173.542 94.7605 173.47 93.9973C173.436 93.6675 173.399 93.3663 173.344 93.0915C173.29 92.841 173.222 92.5937 173.141 92.3506C172.833 91.4713 172.516 90.9258 172.192 90.6836C171.913 90.4643 171.572 90.337 171.217 90.3192H171.258L171.219 89.5498C171.205 89.2933 171.17 89.0389 171.148 88.7824L170.993 87.2538C171.603 87.2547 172.203 87.4117 172.736 87.7097C173.107 87.9275 173.428 88.2234 173.674 88.5769C173.848 88.806 174.007 89.0467 174.148 89.2974C174.293 89.5722 174.439 89.8795 174.584 90.2195C174.913 91.0458 175.148 91.9069 175.284 92.7862C175.332 93.0556 175.365 93.3274 175.384 93.6004C175.408 93.8792 175.428 94.1703 175.445 94.4716C175.475 95.0713 175.49 95.7145 175.492 96.4012C175.465 96.6475 175.471 96.908 175.453 97.1624H175.451ZM164.148 84.1049L164.044 83.4129C164.008 83.1808 163.981 82.9488 163.928 82.7208L163.645 81.3469L177.611 78.5237L177.946 80.1765C178.007 80.4513 178.044 80.7301 178.089 81.009L178.215 81.8435L164.148 84.1049Z" fill="white"/>
</svg>
