<svg xmlns="http://www.w3.org/2000/svg" viewBox="0 0 308 100"><defs><style>.cls-1{fill:#fff;}</style></defs><g id="Layer_2" data-name="Layer 2"><g id="Layer_1-2" data-name="Layer 1"><path class="cls-1" d="M260,52v48h48V52Zm34.1,34.6h-4V73.2l-5.8,6.1-5.8-6.1V86.6h-3.9V65.4h2.1l7.7,8.3,7.7-8.3h2Z"/><path class="cls-1" d="M232.3,73c-.1.2-.2.6-.4,1.1s-.5,1.1-.9,1.9-.8,1.7-1.3,2.8h5.2c-.9-2.2-1.6-3.7-2-4.6a9.73,9.73,0,0,1-.6-1.5C232.4,72.6,232.4,72.8,232.3,73Z"/><path class="cls-1" d="M208,52v48h48V52Zm34.3,34.6h-4.4l-1.7-4.2h-7.8l-1.9,4.2h-4.2v-.3l9.7-21h.9l9.3,21Z"/><path class="cls-1" d="M156,52v48h48V52Zm30.1,34.6H174.5V65.4h11.2v3.8h-7.3v4.6h6.8v3.8h-6.8v5.2H186Z"/><path class="cls-1" d="M128.7,69.9a3.6,3.6,0,0,0-1.2-.8,5.66,5.66,0,0,0-1.8-.3H124v6.9h1.2a6.6,6.6,0,0,0,1.4-.1A3.51,3.51,0,0,0,128,75a3.18,3.18,0,0,0,1.1-1.2,3.44,3.44,0,0,0,.4-2,2.92,2.92,0,0,0-.2-.9A2.07,2.07,0,0,0,128.7,69.9Z"/><path class="cls-1" d="M104,52v48h48V52Zm32.5,34.4-4.6.5-5.4-7.6H124v7.3h-3.9V65.4c.9-.1,1.8-.1,2.7-.2a21.75,21.75,0,0,1,2.5-.1,10.87,10.87,0,0,1,1.8.1l1.6.3a5.12,5.12,0,0,1,2.1,1,5.36,5.36,0,0,1,1.5,1.5,5.08,5.08,0,0,1,.9,1.8,6.45,6.45,0,0,1,.3,2,7.3,7.3,0,0,1-.9,3.5,7.81,7.81,0,0,1-2.4,2.7l6.3,8.1Z"/><path class="cls-1" d="M52,52v48h48V52ZM83.9,69.1H77.8V86.5h-4V69.1H67.7V65.4H83.9Z"/><path class="cls-1" d="M0,52v48H48V52ZM30.4,83.3a5.26,5.26,0,0,1-1.6,2,9.46,9.46,0,0,1-2.4,1.4,9.29,9.29,0,0,1-2.9.5,13.33,13.33,0,0,1-2.8-.3,17.6,17.6,0,0,1-3-1l1-3.8A9.17,9.17,0,0,0,21,83a9.86,9.86,0,0,0,2.4.3,3.4,3.4,0,0,0,2.6-.8,1.56,1.56,0,0,0,.6-.8,2.92,2.92,0,0,0,.2-.9,3.55,3.55,0,0,0-.2-1A2.41,2.41,0,0,0,26,79a4.44,4.44,0,0,0-1.1-.8,5.3,5.3,0,0,0-1.5-.8,8.17,8.17,0,0,1-2-1.2,11.51,11.51,0,0,1-1.7-1.4,6.19,6.19,0,0,1-1.1-1.7,5.38,5.38,0,0,1-.4-2.2,5,5,0,0,1,.7-2.7,6.06,6.06,0,0,1,1.9-2,5.23,5.23,0,0,1,2.3-1,12.41,12.41,0,0,1,2.7-.3,14.77,14.77,0,0,1,2.1.1,15.52,15.52,0,0,1,2.1.4L29.3,69a5.66,5.66,0,0,0-1.8-.3,9.7,9.7,0,0,0-1.7-.1,7.51,7.51,0,0,0-2.6.5,1.78,1.78,0,0,0-.8.7,1.69,1.69,0,0,0-.3,1,2.92,2.92,0,0,0,.2.9,1.34,1.34,0,0,0,.6.7,6.07,6.07,0,0,0,1,.7c.4.2.9.5,1.5.8a19.61,19.61,0,0,1,2.1,1.2,11.51,11.51,0,0,1,1.7,1.4,6.15,6.15,0,0,1,1.2,1.9,6.72,6.72,0,0,1,.4,2.4A5.48,5.48,0,0,1,30.4,83.3Z"/><path class="cls-1" d="M208,0V48h48V0Zm26.3,25.9v8.7h-4V25.9l-8.2-12.2v-.3h4.8l5.5,8.5,5.5-8.5h4.6v.4Z"/><path class="cls-1" d="M180.7,17.9a3.6,3.6,0,0,0-1.2-.8,5.66,5.66,0,0,0-1.8-.3H176v6.9h1.2c.5,0,.9-.1,1.4-.1A3.51,3.51,0,0,0,180,23a3.18,3.18,0,0,0,1.1-1.2,3.44,3.44,0,0,0,.4-2,2.09,2.09,0,0,0-.8-1.9Z"/><path class="cls-1" d="M156,0V48h48V0Zm32.5,34.4-4.6.5-5.4-7.6H176v7.3h-3.9V13.4c.9-.1,1.8-.1,2.7-.2a21.75,21.75,0,0,1,2.5-.1,10.87,10.87,0,0,1,1.8.1l1.6.3a5.12,5.12,0,0,1,2.1,1,5.85,5.85,0,0,1,2.4,3.2,6.45,6.45,0,0,1,.3,2,7.3,7.3,0,0,1-.9,3.5,7.81,7.81,0,0,1-2.4,2.7l6.3,8.1v.4Z"/><path class="cls-1" d="M133.4,18.6a6.91,6.91,0,0,0-2.2-1.6,6.83,6.83,0,0,0-5.6,0,8.55,8.55,0,0,0-2.2,1.5,8.27,8.27,0,0,0-1.5,2.3,7.89,7.89,0,0,0-.5,3v.6a8.87,8.87,0,0,0,.7,2.8,11.35,11.35,0,0,0,1.5,2.3,8.55,8.55,0,0,0,2.2,1.5,4.85,4.85,0,0,0,2.7.5,6.71,6.71,0,0,0,2.8-.6,6.91,6.91,0,0,0,2.2-1.6,9.74,9.74,0,0,0,1.5-2.4,7.89,7.89,0,0,0,.5-3A9.29,9.29,0,0,0,135,21,14.31,14.31,0,0,0,133.4,18.6Z"/><path class="cls-1" d="M104,0V48h48V0Zm34.7,28.6a10.4,10.4,0,0,1-2.6,3.6,11.43,11.43,0,0,1-5.8,2.9,11.18,11.18,0,0,1-6.5-.7,12.59,12.59,0,0,1-3.6-2.4,10.82,10.82,0,0,1-2.4-3.6,11.3,11.3,0,0,1-.9-4.5,11.17,11.17,0,0,1,.9-4.4,9.5,9.5,0,0,1,2.4-3.6,11.35,11.35,0,0,1,3.6-2.4,11.66,11.66,0,0,1,4.5-.9,14.23,14.23,0,0,1,4.5.8,10.55,10.55,0,0,1,3.6,2.3,12.11,12.11,0,0,1,2.4,3.5,11.17,11.17,0,0,1,.9,4.4A15.32,15.32,0,0,1,138.7,28.6Z"/><path class="cls-1" d="M52,0V48h48V0ZM83.9,17.1H77.8V34.5h-4V17.1h-6V13.4H83.9Z"/><path class="cls-1" d="M0,0V48H48V0ZM30.4,31.3a5.26,5.26,0,0,1-1.6,2,7.22,7.22,0,0,1-2.4,1.4,9.29,9.29,0,0,1-2.9.5,12.65,12.65,0,0,1-2.8-.3,11.76,11.76,0,0,1-3-1l1-3.8A9.17,9.17,0,0,0,21,31a9.86,9.86,0,0,0,2.4.3,3.53,3.53,0,0,0,2.6-.8,1.56,1.56,0,0,0,.6-.8,2.92,2.92,0,0,0,.2-.9,3.55,3.55,0,0,0-.2-1A2.41,2.41,0,0,0,26,27a4.44,4.44,0,0,0-1.1-.8,5.3,5.3,0,0,0-1.5-.8,8.17,8.17,0,0,1-2-1.2,11.51,11.51,0,0,1-1.7-1.4,6.19,6.19,0,0,1-1.1-1.7,5.38,5.38,0,0,1-.4-2.2,5,5,0,0,1,.7-2.7,9.09,9.09,0,0,1,1.8-2.1,5.13,5.13,0,0,1,2.4-1,12.41,12.41,0,0,1,2.7-.3,14.77,14.77,0,0,1,2.1.1,15.52,15.52,0,0,1,2.1.4L29.4,17a5.66,5.66,0,0,0-1.8-.3,9.7,9.7,0,0,0-1.7-.1,7.51,7.51,0,0,0-2.6.5,1.78,1.78,0,0,0-.8.7,1.69,1.69,0,0,0-.3,1,2.92,2.92,0,0,0,.2.9,1.34,1.34,0,0,0,.6.7,6.07,6.07,0,0,0,1,.7c.4.2.9.5,1.5.8a19.61,19.61,0,0,1,2.1,1.2,11.51,11.51,0,0,1,1.7,1.4,6.21,6.21,0,0,1,1.6,4.3A4.51,4.51,0,0,1,30.4,31.3Z"/><path class="cls-1" d="M305,0H260V45Z"/><path class="cls-1" d="M308,48V3L263,48Z"/></g></g></svg>